<svg width="42" height="42" viewBox="0 0 42 42" fill="none" xmlns="http://www.w3.org/2000/svg">
<rect width="41.75" height="41.75" rx="5" fill="#4F4F4F"/>
<path d="M30.9905 11.2151C29.1395 10.366 27.1355 9.7497 25.0479 9.39362C25.0296 9.39304 25.0114 9.39642 24.9946 9.40352C24.9777 9.41062 24.9627 9.42126 24.9505 9.4347C24.7 9.88666 24.4077 10.4756 24.2129 10.9275C21.9987 10.5988 19.7469 10.5988 17.5327 10.9275C17.3379 10.4619 17.0456 9.88666 16.7812 9.4347C16.7673 9.40731 16.7255 9.39362 16.6838 9.39362C14.5962 9.7497 12.6061 10.366 10.7412 11.2151C10.7273 11.2151 10.7134 11.2288 10.6994 11.2425C6.914 16.8167 5.87022 22.2401 6.38515 27.6088C6.38515 27.6362 6.39907 27.6636 6.4269 27.6773C8.93197 29.4851 11.3396 30.5808 13.7194 31.3066C13.7612 31.3203 13.8029 31.3066 13.8169 31.2792C14.3735 30.526 14.8746 29.7316 15.306 28.8962C15.3338 28.8414 15.306 28.7866 15.2503 28.7729C14.457 28.4716 13.7055 28.1156 12.9679 27.7047C12.9122 27.6773 12.9122 27.5951 12.954 27.554C13.1071 27.4445 13.2602 27.3212 13.4133 27.2116C13.4411 27.1842 13.4828 27.1842 13.5107 27.1979C18.2981 29.3482 23.4614 29.3482 28.1932 27.1979C28.221 27.1842 28.2628 27.1842 28.2906 27.2116C28.4437 27.3349 28.5968 27.4445 28.7498 27.5677C28.8055 27.6088 28.8055 27.691 28.7359 27.7184C28.0122 28.1429 27.2468 28.4853 26.4535 28.7866C26.3979 28.8003 26.384 28.8688 26.3979 28.9099C26.8432 29.7453 27.3442 30.5397 27.887 31.2929C27.9287 31.3066 27.9705 31.3203 28.0122 31.3066C30.406 30.5808 32.8136 29.4851 35.3187 27.6773C35.3465 27.6636 35.3604 27.6362 35.3604 27.6088C35.9728 21.4047 34.3445 16.0223 31.0462 11.2425C31.0322 11.2288 31.0183 11.2151 30.9905 11.2151ZM16.0297 24.3356C14.5962 24.3356 13.3993 23.0345 13.3993 21.4321C13.3993 19.8297 14.5684 18.5286 16.0297 18.5286C17.5049 18.5286 18.6739 19.8434 18.66 21.4321C18.66 23.0345 17.491 24.3356 16.0297 24.3356ZM25.7299 24.3356C24.2964 24.3356 23.0995 23.0345 23.0995 21.4321C23.0995 19.8297 24.2686 18.5286 25.7299 18.5286C27.2051 18.5286 28.3741 19.8434 28.3602 21.4321C28.3602 23.0345 27.2051 24.3356 25.7299 24.3356Z" fill="#1E1E1E"/>
</svg>
