<svg width="42" height="42" viewBox="0 0 42 42" fill="none" xmlns="http://www.w3.org/2000/svg">
<rect x="0.21875" width="41.75" height="41.75" rx="5" fill="#4F4F4F"/>
<path d="M14.5181 5.21875H27.6694C32.6794 5.21875 36.75 9.28938 36.75 14.2994V27.4506C36.75 29.859 35.7933 32.1687 34.0904 33.8716C32.3874 35.5745 30.0777 36.5313 27.6694 36.5313H14.5181C9.50813 36.5313 5.4375 32.4606 5.4375 27.4506V14.2994C5.4375 11.891 6.39421 9.58135 8.09715 7.8784C9.8001 6.17546 12.1098 5.21875 14.5181 5.21875ZM14.205 8.35C12.7102 8.35 11.2766 8.94382 10.2196 10.0008C9.16257 11.0578 8.56875 12.4914 8.56875 13.9863V27.7638C8.56875 30.8793 11.0894 33.4 14.205 33.4H27.9825C29.4773 33.4 30.9109 32.8062 31.9679 31.7492C33.0249 30.6922 33.6188 29.2586 33.6188 27.7638V13.9863C33.6188 10.8707 31.0981 8.35 27.9825 8.35H14.205ZM29.3133 10.6984C29.8323 10.6984 30.3301 10.9046 30.6971 11.2716C31.0641 11.6387 31.2703 12.1364 31.2703 12.6555C31.2703 13.1745 31.0641 13.6723 30.6971 14.0393C30.3301 14.4063 29.8323 14.6125 29.3133 14.6125C28.7942 14.6125 28.2965 14.4063 27.9295 14.0393C27.5624 13.6723 27.3563 13.1745 27.3563 12.6555C27.3563 12.1364 27.5624 11.6387 27.9295 11.2716C28.2965 10.9046 28.7942 10.6984 29.3133 10.6984ZM21.0938 13.0469C23.1699 13.0469 25.161 13.8716 26.6291 15.3397C28.0971 16.8077 28.9219 18.7989 28.9219 20.875C28.9219 22.9512 28.0971 24.9423 26.6291 26.4103C25.161 27.8784 23.1699 28.7031 21.0938 28.7031C19.0176 28.7031 17.0265 27.8784 15.5584 26.4103C14.0904 24.9423 13.2656 22.9512 13.2656 20.875C13.2656 18.7989 14.0904 16.8077 15.5584 15.3397C17.0265 13.8716 19.0176 13.0469 21.0938 13.0469ZM21.0938 16.1781C19.8481 16.1781 18.6534 16.673 17.7726 17.5538C16.8917 18.4346 16.3969 19.6293 16.3969 20.875C16.3969 22.1207 16.8917 23.3154 17.7726 24.1962C18.6534 25.077 19.8481 25.5719 21.0938 25.5719C22.3394 25.5719 23.5341 25.077 24.4149 24.1962C25.2958 23.3154 25.7906 22.1207 25.7906 20.875C25.7906 19.6293 25.2958 18.4346 24.4149 17.5538C23.5341 16.673 22.3394 16.1781 21.0938 16.1781Z" fill="#1E1E1E"/>
</svg>
