<svg>
    <symbol class="contacts__icon-symbol" fill="none" xmlns="http://www.w3.org/2000/svg" id="vk">
        <rect class="contacts__icon-rect" width="41.75" height="41.75" rx="5" fill="#4F4F4F"/>
        <path
            class="contacts__icon-path"
            fill-rule="evenodd"
            clip-rule="evenodd"
            d="M33.7043 29.7825H30.6736C29.8558 29.7825 29.4411 29.3204 28.5237 28.2982C28.1533 27.8854 27.7008 27.3812 27.1067 26.7792C25.3128 25.0401 24.5182 24.8092 24.076 24.8092C23.451 24.8092 23.2736 24.9853 23.2736 25.8425V28.5809C23.2736 29.3154 23.0427 29.7564 21.0988 29.7564C17.8841 29.7564 14.3172 27.8125 11.8162 24.1908C8.04445 18.8835 7.01248 14.9082 7.01248 14.0863C7.01248 13.644 7.18861 13.2304 8.03793 13.2304H11.0751C11.8436 13.2304 12.1358 13.584 12.4346 14.4059C13.9362 18.7413 16.4372 22.5391 17.4692 22.5391C17.8502 22.5391 18.0263 22.363 18.0263 21.391V16.9134C17.9545 15.637 17.512 15.0817 17.1844 14.6706C16.982 14.4166 16.8234 14.2176 16.8234 13.9375C16.8234 13.584 17.1157 13.2304 17.584 13.2304H22.3603C23.0061 13.2304 23.2436 13.584 23.2436 14.3446V20.3851C23.2436 21.0374 23.5358 21.2684 23.712 21.2684C24.0929 21.2684 24.4191 21.0374 25.1249 20.3303C27.3063 17.8841 28.8692 14.1124 28.8692 14.1124C29.0728 13.6701 29.4263 13.2565 30.1948 13.2565H33.232C34.1426 13.2565 34.3461 13.7249 34.1426 14.3772C33.7617 16.1437 30.0447 21.3897 30.0447 21.3897C29.7251 21.9194 29.6024 22.1503 30.0447 22.7413C30.2056 22.9595 30.5454 23.2933 30.9331 23.6743C31.3312 24.0654 31.7798 24.5063 32.1374 24.9227C33.4355 26.3969 34.4335 27.6337 34.6997 28.4896C34.9985 29.3389 34.5575 29.7812 33.7003 29.7812L33.7043 29.7825Z"
            fill="#1E1E1E"
        />
    </symbol>
    <symbol class="contacts__icon-symbol" fill="none" xmlns="http://www.w3.org/2000/svg" id="fb">
        <rect class="contacts__icon-rect" x="0.40625" width="41.75" height="41.75" rx="5" fill="#4F4F4F"/>
        <path class="contacts__icon-path" d="M36.9375 20.9142C36.9375 12.2503 29.9235 5.21875 21.2813 5.21875C12.639 5.21875 5.625 12.2503 5.625 20.9142C5.625 28.5109 11.0108 34.8361 18.15 36.2958V25.6229H15.0188V20.9142H18.15V16.9904C18.15 13.9611 20.608 11.4969 23.6297 11.4969H27.5438V16.2056H24.4125C23.5514 16.2056 22.8469 16.9119 22.8469 17.7751V20.9142H27.5438V25.6229H22.8469V36.5313C30.7533 35.7465 36.9375 29.0602 36.9375 20.9142Z" fill="#1E1E1E"/>
    </symbol>
    <symbol class="contacts__icon-symbol" fill="none" xmlns="http://www.w3.org/2000/svg" id="tw">
        <rect class="contacts__icon-rect" x="0.8125" width="41.75" height="41.75" rx="5" fill="#4F4F4F"/>
        <path class="contacts__icon-path" d="M36.3 12.2178C35.2243 12.7121 34.0648 13.0369 32.8634 13.1922C34.0927 12.4438 35.0427 11.2576 35.4897 9.83132C34.3302 10.5374 33.045 11.0316 31.6899 11.3141C30.5863 10.0996 29.0356 9.39355 27.2754 9.39355C23.9925 9.39355 21.3103 12.1048 21.3103 15.4516C21.3103 15.9317 21.3661 16.3977 21.4639 16.8355C16.4907 16.5813 12.0622 14.1666 9.11456 10.5091C8.59767 11.3988 8.3043 12.4438 8.3043 13.5452C8.3043 15.6493 9.35204 17.5133 10.9726 18.5724C9.98069 18.5724 9.05868 18.29 8.24842 17.8664V17.9087C8.24842 20.846 10.316 23.3031 13.0541 23.8538C12.175 24.097 11.2521 24.1308 10.3579 23.9526C10.7373 25.1565 11.4804 26.2098 12.4827 26.9646C13.485 27.7194 14.6962 28.1378 15.9458 28.1608C13.8275 29.856 11.2017 30.7723 8.49988 30.7591C8.0249 30.7591 7.54993 30.7309 7.07495 30.6744C9.72923 32.3972 12.8864 33.3998 16.2671 33.3998C27.2754 33.3998 33.3244 24.1645 33.3244 16.1577C33.3244 15.8894 33.3244 15.6352 33.3104 15.3669C34.4839 14.5196 35.4897 13.4464 36.3 12.2178Z" fill="#1E1E1E"/>
    </symbol>
    <symbol class="contacts__icon-symbol" fill="none" xmlns="http://www.w3.org/2000/svg" id="inst">
        <rect class="contacts__icon-rect" x="0.21875" width="41.75" height="41.75" rx="5" fill="#4F4F4F"/>
        <path class="contacts__icon-path" d="M14.5181 5.21875H27.6694C32.6794 5.21875 36.75 9.28938 36.75 14.2994V27.4506C36.75 29.859 35.7933 32.1687 34.0904 33.8716C32.3874 35.5745 30.0777 36.5313 27.6694 36.5313H14.5181C9.50813 36.5313 5.4375 32.4606 5.4375 27.4506V14.2994C5.4375 11.891 6.39421 9.58135 8.09715 7.8784C9.8001 6.17546 12.1098 5.21875 14.5181 5.21875ZM14.205 8.35C12.7102 8.35 11.2766 8.94382 10.2196 10.0008C9.16257 11.0578 8.56875 12.4914 8.56875 13.9863V27.7638C8.56875 30.8793 11.0894 33.4 14.205 33.4H27.9825C29.4773 33.4 30.9109 32.8062 31.9679 31.7492C33.0249 30.6922 33.6188 29.2586 33.6188 27.7638V13.9863C33.6188 10.8707 31.0981 8.35 27.9825 8.35H14.205ZM29.3133 10.6984C29.8323 10.6984 30.3301 10.9046 30.6971 11.2716C31.0641 11.6387 31.2703 12.1364 31.2703 12.6555C31.2703 13.1745 31.0641 13.6723 30.6971 14.0393C30.3301 14.4063 29.8323 14.6125 29.3133 14.6125C28.7942 14.6125 28.2965 14.4063 27.9295 14.0393C27.5624 13.6723 27.3563 13.1745 27.3563 12.6555C27.3563 12.1364 27.5624 11.6387 27.9295 11.2716C28.2965 10.9046 28.7942 10.6984 29.3133 10.6984ZM21.0938 13.0469C23.1699 13.0469 25.161 13.8716 26.6291 15.3397C28.0971 16.8077 28.9219 18.7989 28.9219 20.875C28.9219 22.9512 28.0971 24.9423 26.6291 26.4103C25.161 27.8784 23.1699 28.7031 21.0938 28.7031C19.0176 28.7031 17.0265 27.8784 15.5584 26.4103C14.0904 24.9423 13.2656 22.9512 13.2656 20.875C13.2656 18.7989 14.0904 16.8077 15.5584 15.3397C17.0265 13.8716 19.0176 13.0469 21.0938 13.0469ZM21.0938 16.1781C19.8481 16.1781 18.6534 16.673 17.7726 17.5538C16.8917 18.4346 16.3969 19.6293 16.3969 20.875C16.3969 22.1207 16.8917 23.3154 17.7726 24.1962C18.6534 25.077 19.8481 25.5719 21.0938 25.5719C22.3394 25.5719 23.5341 25.077 24.4149 24.1962C25.2958 23.3154 25.7906 22.1207 25.7906 20.875C25.7906 19.6293 25.2958 18.4346 24.4149 17.5538C23.5341 16.673 22.3394 16.1781 21.0938 16.1781Z" fill="#1E1E1E"/>
    </symbol>
    <symbol class="contacts__icon-symbol" fill="none" xmlns="http://www.w3.org/2000/svg" id="tg">
        <rect class="contacts__icon-rect" x="0.625" width="41.75" height="41.75" rx="5" fill="#4F4F4F"/>
        <path class="contacts__icon-path" d="M22.3229 14.8647C20.0898 15.7927 15.6255 17.7158 8.93196 20.6321C7.84507 21.0645 7.27483 21.4874 7.22316 21.9008C7.13514 22.6011 8.01154 22.8767 9.20177 23.2498C9.36442 23.3015 9.53281 23.3531 9.70503 23.4105C10.878 23.7913 12.4548 24.2372 13.2738 24.2544C14.0182 24.2697 14.8486 23.9636 15.7652 23.3359C22.0187 19.1127 25.2468 16.9791 25.4497 16.9332C25.5932 16.9007 25.7922 16.8586 25.9261 16.9791C26.0601 17.0978 26.0467 17.3236 26.0333 17.3848C25.9453 17.7541 22.5124 20.9478 20.7328 22.6011C20.1778 23.1159 19.7856 23.4813 19.7052 23.5655C19.5253 23.7512 19.3416 23.9291 19.1656 24.0994C18.0749 25.148 17.2597 25.9364 19.2115 27.2223C20.1219 27.8224 20.8554 28.3215 21.5821 28.8159L21.6474 28.8603C22.4645 29.4172 23.2797 29.9721 24.336 30.6648C24.6039 30.8408 24.8603 31.0226 25.111 31.2006C26.062 31.8799 26.9173 32.4884 27.9736 32.3927C28.5859 32.3353 29.2212 31.7593 29.5427 30.0391C30.3024 25.9709 31.7988 17.1609 32.1451 13.529C32.1662 13.2275 32.1534 12.9245 32.1069 12.6258C32.079 12.3846 31.9616 12.1626 31.7777 12.0039C31.5041 11.78 31.0793 11.7322 30.8879 11.736C30.0249 11.7513 28.7008 12.2125 22.3229 14.8647Z" fill="#1E1E1E"/>
    </symbol>
    <symbol class="contacts__icon-symbol" fill="none" xmlns="http://www.w3.org/2000/svg" id="ds">
        <rect class="contacts__icon-rect" width="41.75" height="41.75" rx="5" fill="#4F4F4F"/>
        <path class="contacts__icon-path" d="M30.9905 11.2151C29.1395 10.366 27.1355 9.7497 25.0479 9.39362C25.0296 9.39304 25.0114 9.39642 24.9946 9.40352C24.9777 9.41062 24.9627 9.42126 24.9505 9.4347C24.7 9.88666 24.4077 10.4756 24.2129 10.9275C21.9987 10.5988 19.7469 10.5988 17.5327 10.9275C17.3379 10.4619 17.0456 9.88666 16.7812 9.4347C16.7673 9.40731 16.7255 9.39362 16.6838 9.39362C14.5962 9.7497 12.6061 10.366 10.7412 11.2151C10.7273 11.2151 10.7134 11.2288 10.6994 11.2425C6.914 16.8167 5.87022 22.2401 6.38515 27.6088C6.38515 27.6362 6.39907 27.6636 6.4269 27.6773C8.93197 29.4851 11.3396 30.5808 13.7194 31.3066C13.7612 31.3203 13.8029 31.3066 13.8169 31.2792C14.3735 30.526 14.8746 29.7316 15.306 28.8962C15.3338 28.8414 15.306 28.7866 15.2503 28.7729C14.457 28.4716 13.7055 28.1156 12.9679 27.7047C12.9122 27.6773 12.9122 27.5951 12.954 27.554C13.1071 27.4445 13.2602 27.3212 13.4133 27.2116C13.4411 27.1842 13.4828 27.1842 13.5107 27.1979C18.2981 29.3482 23.4614 29.3482 28.1932 27.1979C28.221 27.1842 28.2628 27.1842 28.2906 27.2116C28.4437 27.3349 28.5968 27.4445 28.7498 27.5677C28.8055 27.6088 28.8055 27.691 28.7359 27.7184C28.0122 28.1429 27.2468 28.4853 26.4535 28.7866C26.3979 28.8003 26.384 28.8688 26.3979 28.9099C26.8432 29.7453 27.3442 30.5397 27.887 31.2929C27.9287 31.3066 27.9705 31.3203 28.0122 31.3066C30.406 30.5808 32.8136 29.4851 35.3187 27.6773C35.3465 27.6636 35.3604 27.6362 35.3604 27.6088C35.9728 21.4047 34.3445 16.0223 31.0462 11.2425C31.0322 11.2288 31.0183 11.2151 30.9905 11.2151ZM16.0297 24.3356C14.5962 24.3356 13.3993 23.0345 13.3993 21.4321C13.3993 19.8297 14.5684 18.5286 16.0297 18.5286C17.5049 18.5286 18.6739 19.8434 18.66 21.4321C18.66 23.0345 17.491 24.3356 16.0297 24.3356ZM25.7299 24.3356C24.2964 24.3356 23.0995 23.0345 23.0995 21.4321C23.0995 19.8297 24.2686 18.5286 25.7299 18.5286C27.2051 18.5286 28.3741 19.8434 28.3602 21.4321C28.3602 23.0345 27.2051 24.3356 25.7299 24.3356Z" fill="#1E1E1E"/>
    </symbol>
    <symbol class="contacts__icon-symbol" fill="none" xmlns="http://www.w3.org/2000/svg" id="twitch">
        <rect class="contacts__icon-rect" x="0.40625" width="41.75" height="41.75" rx="5" fill="#4F4F4F"/>
        <path class="contacts__icon-path" d="M20.2112 12.2105H22.3882V18.688H20.2112M26.1942 12.2105H28.3712V18.688H26.1942M13.1473 6.2627L7.7124 11.6657V31.1285H14.2282V36.5315L19.6784 31.1285H24.0172L33.8062 21.3971V6.2627M31.6291 20.3225L27.2903 24.6358H22.9363L19.1303 28.4194V24.6358H14.2282V8.42691H31.6291V20.3225Z" fill="#1E1E1E"/>
    </symbol>
    <symbol class="contacts__icon-symbol" fill="none" xmlns="http://www.w3.org/2000/svg" id="yt">
        <rect class="contacts__icon-rect" width="41.75" height="41.75" rx="5" fill="#4F4F4F"/>
        <path class="contacts__icon-path" d="M37.7051 13.6966C37.521 13.0661 37.1605 12.4913 36.6596 12.0296C36.1587 11.5679 35.535 11.2356 34.851 11.0659C32.332 10.4375 22.2096 10.4375 22.2096 10.4375C22.2096 10.4375 12.0873 10.4375 9.56825 11.0659C8.88423 11.2356 8.26056 11.5679 7.75967 12.0296C7.25878 12.4913 6.89824 13.0661 6.71412 13.6966C6.24376 16.0645 6.01551 18.4678 6.03236 20.875C6.01551 23.2822 6.24376 25.6856 6.71412 28.0534C6.89824 28.6839 7.25878 29.2588 7.75967 29.7204C8.26056 30.1821 8.88423 30.5144 9.56825 30.6841C12.0873 31.3125 22.2096 31.3125 22.2096 31.3125C22.2096 31.3125 32.332 31.3125 34.851 30.6841C35.535 30.5144 36.1587 30.1821 36.6596 29.7204C37.1605 29.2588 37.521 28.6839 37.7051 28.0534C38.1755 25.6856 38.4037 23.2822 38.3869 20.875C38.4037 18.4678 38.1755 16.0645 37.7051 13.6966ZM18.9742 25.3482V16.4018L27.3748 20.875L18.9742 25.3482Z" fill="#1E1E1E"/>
    </symbol>
    <symbol class="contacts__icon-symbol" fill="none" xmlns="http://www.w3.org/2000/svg" id="tr">
        <rect class="contacts__icon-rect" width="41.75" height="41.75" rx="5" fill="#4F4F4F"/>
        <path class="contacts__icon-path" d="M30.8479 26.0904C30.4171 24.3446 29.1251 23.1792 27.3055 23.1932C25.5241 23.2069 24.5352 24.3528 24.4021 25.6229C24.3041 26.5593 24.6575 27.3113 25.17 27.6188C26.1124 28.1841 26.774 27.2211 26.4068 26.8636C26.1704 26.6334 26.0607 26.4386 26.1124 26.0904C26.164 25.7423 26.4268 25.3938 27.0472 25.3938C27.6676 25.3938 28.1902 25.8424 28.3016 26.7709C28.4329 27.8663 27.7211 29.0523 26.4648 29.3211C24.8743 29.6612 23.2701 28.8023 22.7016 27.4192C22.1331 26.0361 22.2874 23.8794 23.6473 22.5604C24.7245 21.5156 26.1187 21.1306 27.3055 21.1306L31.2755 21.307C31.5693 21.3201 31.8317 21.1221 31.9032 20.8334L33.6003 13.8274C33.6127 13.7775 33.6189 13.7263 33.6189 13.6749C33.6189 13.3288 33.3811 13.0482 33.0392 13.0482H25.7803C25.7568 13.0482 25.7334 13.0455 25.7105 13.0402C25.5439 13.0012 25.4401 12.8329 25.4786 12.6643L26.2893 9.11779C26.2998 9.07149 26.3052 9.02411 26.3052 8.97653C26.3052 8.63046 26.028 8.3499 25.686 8.3499H18.1737C17.7539 8.3499 17.3863 8.63482 17.2769 9.04498L16.4482 12.5849C16.3753 12.8583 16.1302 13.0482 15.8503 13.0482H11.0387C10.6043 13.0482 10.2279 13.3531 10.1325 13.782L8.58395 20.7506C8.57393 20.7957 8.56885 20.8418 8.56885 20.8881C8.56885 21.2342 8.84608 21.5147 9.1881 21.5147H14.1213C14.1516 21.5147 14.1818 21.5177 14.2115 21.5237C14.4631 21.5741 14.6266 21.8214 14.5768 22.076C14.4305 22.8235 14.3322 23.5626 14.282 24.2932C14.1325 26.4656 14.6954 28.8443 16.3896 30.7017C19.2723 33.8622 24.5944 34.0455 27.7429 32.2897C30.2743 30.8781 31.3876 28.278 30.8479 26.0904Z"  fill="#1E1E1E"/>
    </symbol>
    <symbol class="contacts__icon-symbol" fill="none" xmlns="http://www.w3.org/2000/svg" id="email">
        <rect class="contacts__icon-rect"  width="41.75" height="41.75" rx="5" fill="#4F4F4F"/>
        <path class="contacts__icon-path" d="M20.9999 32.6668C19.4055 32.6668 17.8985 32.3604 16.4791 31.7475C15.0596 31.1354 13.8203 30.2993 12.7609 29.2392C11.7008 28.1798 10.8647 26.9404 10.2526 25.521C9.6397 24.1016 9.33325 22.5946 9.33325 21.0002C9.33325 19.3863 9.6397 17.8747 10.2526 16.4653C10.8647 15.0552 11.7008 13.8205 12.7609 12.7612C13.8203 11.7011 15.0596 10.8646 16.4791 10.2517C17.8985 9.63955 19.4055 9.3335 20.9999 9.3335C22.6138 9.3335 24.1254 9.63955 25.5348 10.2517C26.9449 10.8646 28.1796 11.7011 29.2389 12.7612C30.299 13.8205 31.1351 15.0552 31.7473 16.4653C32.3601 17.8747 32.6666 19.3863 32.6666 21.0002V22.6918C32.6666 23.8391 32.273 24.8159 31.4859 25.6225C30.698 26.4298 29.7305 26.8335 28.5833 26.8335C27.8833 26.8335 27.2319 26.6779 26.6291 26.3668C26.0263 26.0557 25.5305 25.6474 25.1416 25.1418C24.6166 25.6668 23.9994 26.0802 23.2901 26.382C22.58 26.683 21.8166 26.8335 20.9999 26.8335C19.386 26.8335 18.0105 26.2646 16.8734 25.1267C15.7355 23.9896 15.1666 22.6141 15.1666 21.0002C15.1666 19.3863 15.7355 18.0104 16.8734 16.8725C18.0105 15.7354 19.386 15.1668 20.9999 15.1668C22.6138 15.1668 23.9897 15.7354 25.1276 16.8725C26.2647 18.0104 26.8333 19.3863 26.8333 21.0002V22.6918C26.8333 23.2557 27.0083 23.6979 27.3583 24.0183C27.7083 24.3396 28.1166 24.5002 28.5833 24.5002C29.0499 24.5002 29.4583 24.3396 29.8083 24.0183C30.1583 23.6979 30.3333 23.2557 30.3333 22.6918V21.0002C30.3333 18.4529 29.4143 16.2604 27.5764 14.4225C25.7393 12.5854 23.5471 11.6668 20.9999 11.6668C18.4527 11.6668 16.2601 12.5854 14.4223 14.4225C12.5851 16.2604 11.6666 18.4529 11.6666 21.0002C11.6666 23.5474 12.5851 25.7396 14.4223 27.5767C16.2601 29.4146 18.4527 30.3335 20.9999 30.3335H26.8333V32.6668H20.9999ZM20.9999 24.5002C21.9721 24.5002 22.7985 24.1599 23.4791 23.4793C24.1596 22.7988 24.4999 21.9724 24.4999 21.0002C24.4999 20.0279 24.1596 19.2016 23.4791 18.521C22.7985 17.8404 21.9721 17.5002 20.9999 17.5002C20.0277 17.5002 19.2013 17.8404 18.5208 18.521C17.8402 19.2016 17.4999 20.0279 17.4999 21.0002C17.4999 21.9724 17.8402 22.7988 18.5208 23.4793C19.2013 24.1599 20.0277 24.5002 20.9999 24.5002Z"  fill="#1E1E1E"/>
    </symbol>
</svg>
