<svg width="43" height="42" viewBox="0 0 43 42" fill="none" xmlns="http://www.w3.org/2000/svg">
<g clip-path="url(#clip0_1372_2031)">
<rect x="0.625" width="41.75" height="41.75" rx="5" fill="#4F4F4F"/>
<path d="M22.3229 14.8647C20.0898 15.7927 15.6255 17.7158 8.93196 20.6321C7.84507 21.0645 7.27483 21.4874 7.22316 21.9008C7.13514 22.6011 8.01154 22.8767 9.20177 23.2498C9.36442 23.3015 9.53281 23.3531 9.70503 23.4105C10.878 23.7913 12.4548 24.2372 13.2738 24.2544C14.0182 24.2697 14.8486 23.9636 15.7652 23.3359C22.0187 19.1127 25.2468 16.9791 25.4497 16.9332C25.5932 16.9007 25.7922 16.8586 25.9261 16.9791C26.0601 17.0978 26.0467 17.3236 26.0333 17.3848C25.9453 17.7541 22.5124 20.9478 20.7328 22.6011C20.1778 23.1159 19.7856 23.4813 19.7052 23.5655C19.5253 23.7512 19.3416 23.9291 19.1656 24.0994C18.0749 25.148 17.2597 25.9364 19.2115 27.2223C20.1219 27.8224 20.8554 28.3215 21.5821 28.8159L21.6474 28.8603C22.4645 29.4172 23.2797 29.9721 24.336 30.6648C24.6039 30.8408 24.8603 31.0226 25.111 31.2006C26.062 31.8799 26.9173 32.4884 27.9736 32.3927C28.5859 32.3353 29.2212 31.7593 29.5427 30.0391C30.3024 25.9709 31.7988 17.1609 32.1451 13.529C32.1662 13.2275 32.1534 12.9245 32.1069 12.6258C32.079 12.3846 31.9616 12.1626 31.7777 12.0039C31.5041 11.78 31.0793 11.7322 30.8879 11.736C30.0249 11.7513 28.7008 12.2125 22.3229 14.8647Z" fill="#1E1E1E"/>
</g>
<defs>
<clipPath id="clip0_1372_2031">
<rect x="0.625" width="41.75" height="41.75" rx="5" fill="white"/>
</clipPath>
</defs>
</svg>
