<svg width="42" height="42" viewBox="0 0 42 42" fill="none" xmlns="http://www.w3.org/2000/svg">
<rect x="0.21875" width="41.75" height="41.75" rx="5" fill="#4F4F4F"/>
<path d="M30.8479 26.0904C30.4171 24.3446 29.1251 23.1792 27.3055 23.1932C25.5241 23.2069 24.5352 24.3528 24.4021 25.6229C24.3041 26.5593 24.6575 27.3113 25.17 27.6188C26.1124 28.1841 26.774 27.2211 26.4068 26.8636C26.1704 26.6334 26.0607 26.4386 26.1124 26.0904C26.164 25.7423 26.4268 25.3938 27.0472 25.3938C27.6676 25.3938 28.1902 25.8424 28.3016 26.7709C28.4329 27.8663 27.7211 29.0523 26.4648 29.3211C24.8743 29.6612 23.2701 28.8023 22.7016 27.4192C22.1331 26.0361 22.2874 23.8794 23.6473 22.5604C24.7245 21.5156 26.1187 21.1306 27.3055 21.1306L31.2755 21.307C31.5693 21.3201 31.8317 21.1221 31.9032 20.8334L33.6003 13.8274C33.6127 13.7775 33.6189 13.7263 33.6189 13.6749C33.6189 13.3288 33.3811 13.0482 33.0392 13.0482H25.7803C25.7568 13.0482 25.7334 13.0455 25.7105 13.0402C25.5439 13.0012 25.4401 12.8329 25.4786 12.6643L26.2893 9.11779C26.2998 9.07149 26.3052 9.02411 26.3052 8.97653C26.3052 8.63046 26.028 8.3499 25.686 8.3499H18.1737C17.7539 8.3499 17.3863 8.63482 17.2769 9.04498L16.4482 12.5849C16.3753 12.8583 16.1302 13.0482 15.8503 13.0482H11.0387C10.6043 13.0482 10.2279 13.3531 10.1325 13.782L8.58395 20.7506C8.57393 20.7957 8.56885 20.8418 8.56885 20.8881C8.56885 21.2342 8.84608 21.5147 9.1881 21.5147H14.1213C14.1516 21.5147 14.1818 21.5177 14.2115 21.5237C14.4631 21.5741 14.6266 21.8214 14.5768 22.076C14.4305 22.8235 14.3322 23.5626 14.282 24.2932C14.1325 26.4656 14.6954 28.8443 16.3896 30.7017C19.2723 33.8622 24.5944 34.0455 27.7429 32.2897C30.2743 30.8781 31.3876 28.278 30.8479 26.0904Z" fill="#1E1E1E"/>
</svg>
