<svg width="43" height="42" viewBox="0 0 43 42" fill="none" xmlns="http://www.w3.org/2000/svg">
<rect x="0.8125" width="41.75" height="41.75" rx="5" fill="#4F4F4F"/>
<path d="M36.3 12.2178C35.2243 12.7121 34.0648 13.0369 32.8634 13.1922C34.0927 12.4438 35.0427 11.2576 35.4897 9.83132C34.3302 10.5374 33.045 11.0316 31.6899 11.3141C30.5863 10.0996 29.0356 9.39355 27.2754 9.39355C23.9925 9.39355 21.3103 12.1048 21.3103 15.4516C21.3103 15.9317 21.3661 16.3977 21.4639 16.8355C16.4907 16.5813 12.0622 14.1666 9.11456 10.5091C8.59767 11.3988 8.3043 12.4438 8.3043 13.5452C8.3043 15.6493 9.35204 17.5133 10.9726 18.5724C9.98069 18.5724 9.05868 18.29 8.24842 17.8664V17.9087C8.24842 20.846 10.316 23.3031 13.0541 23.8538C12.175 24.097 11.2521 24.1308 10.3579 23.9526C10.7373 25.1565 11.4804 26.2098 12.4827 26.9646C13.485 27.7194 14.6962 28.1378 15.9458 28.1608C13.8275 29.856 11.2017 30.7723 8.49988 30.7591C8.0249 30.7591 7.54993 30.7309 7.07495 30.6744C9.72923 32.3972 12.8864 33.3998 16.2671 33.3998C27.2754 33.3998 33.3244 24.1645 33.3244 16.1577C33.3244 15.8894 33.3244 15.6352 33.3104 15.3669C34.4839 14.5196 35.4897 13.4464 36.3 12.2178Z" fill="#1E1E1E"/>
</svg>
