<svg width="42" height="42" viewBox="0 0 42 42" fill="none" xmlns="http://www.w3.org/2000/svg">
    <g clip-path="url(#clip0_1372_2029)">
        <rect class="contacts__icon-rect" width="41.75" height="41.75" rx="5" fill="#4F4F4F"/>
        <path
            class="contacts__icon-path"
            fill-rule="evenodd"
            clip-rule="evenodd"
            d="M33.7043 29.7825H30.6736C29.8558 29.7825 29.4411 29.3204 28.5237 28.2982C28.1533 27.8854 27.7008 27.3812 27.1067 26.7792C25.3128 25.0401 24.5182 24.8092 24.076 24.8092C23.451 24.8092 23.2736 24.9853 23.2736 25.8425V28.5809C23.2736 29.3154 23.0427 29.7564 21.0988 29.7564C17.8841 29.7564 14.3172 27.8125 11.8162 24.1908C8.04445 18.8835 7.01248 14.9082 7.01248 14.0863C7.01248 13.644 7.18861 13.2304 8.03793 13.2304H11.0751C11.8436 13.2304 12.1358 13.584 12.4346 14.4059C13.9362 18.7413 16.4372 22.5391 17.4692 22.5391C17.8502 22.5391 18.0263 22.363 18.0263 21.391V16.9134C17.9545 15.637 17.512 15.0817 17.1844 14.6706C16.982 14.4166 16.8234 14.2176 16.8234 13.9375C16.8234 13.584 17.1157 13.2304 17.584 13.2304H22.3603C23.0061 13.2304 23.2436 13.584 23.2436 14.3446V20.3851C23.2436 21.0374 23.5358 21.2684 23.712 21.2684C24.0929 21.2684 24.4191 21.0374 25.1249 20.3303C27.3063 17.8841 28.8692 14.1124 28.8692 14.1124C29.0728 13.6701 29.4263 13.2565 30.1948 13.2565H33.232C34.1426 13.2565 34.3461 13.7249 34.1426 14.3772C33.7617 16.1437 30.0447 21.3897 30.0447 21.3897C29.7251 21.9194 29.6024 22.1503 30.0447 22.7413C30.2056 22.9595 30.5454 23.2933 30.9331 23.6743C31.3312 24.0654 31.7798 24.5063 32.1374 24.9227C33.4355 26.3969 34.4335 27.6337 34.6997 28.4896C34.9985 29.3389 34.5575 29.7812 33.7003 29.7812L33.7043 29.7825Z"
            fill="#1E1E1E"
        />
    </g>
    <defs>
        <clipPath id="clip0_1372_2029">
            <rect width="41.75" height="41.75" rx="5" fill="white"/>
        </clipPath>
    </defs>
</svg>
