<svg width="43" height="42" viewBox="0 0 43 42" fill="none" xmlns="http://www.w3.org/2000/svg">
<rect x="0.812744" width="41.75" height="41.75" rx="5" fill="#4F4F4F"/>
<path d="M37.7051 13.6966C37.521 13.0661 37.1605 12.4913 36.6596 12.0296C36.1587 11.5679 35.535 11.2356 34.851 11.0659C32.332 10.4375 22.2096 10.4375 22.2096 10.4375C22.2096 10.4375 12.0873 10.4375 9.56825 11.0659C8.88423 11.2356 8.26056 11.5679 7.75967 12.0296C7.25878 12.4913 6.89824 13.0661 6.71412 13.6966C6.24376 16.0645 6.01551 18.4678 6.03236 20.875C6.01551 23.2822 6.24376 25.6856 6.71412 28.0534C6.89824 28.6839 7.25878 29.2588 7.75967 29.7204C8.26056 30.1821 8.88423 30.5144 9.56825 30.6841C12.0873 31.3125 22.2096 31.3125 22.2096 31.3125C22.2096 31.3125 32.332 31.3125 34.851 30.6841C35.535 30.5144 36.1587 30.1821 36.6596 29.7204C37.1605 29.2588 37.521 28.6839 37.7051 28.0534C38.1755 25.6856 38.4037 23.2822 38.3869 20.875C38.4037 18.4678 38.1755 16.0645 37.7051 13.6966ZM18.9742 25.3482V16.4018L27.3748 20.875L18.9742 25.3482Z" fill="#1E1E1E"/>
</svg>
