<svg width="39" height="27" viewBox="0 0 39 27" fill="none" xmlns="http://www.w3.org/2000/svg">
<path d="M37.5197 4.44317C37.3056 3.64773 36.8863 2.92247 36.3038 2.33998C35.7213 1.7575 34.9961 1.33822 34.2006 1.12411C31.2713 0.331299 19.5 0.331299 19.5 0.331299C19.5 0.331299 7.72875 0.331299 4.79938 1.12411C4.00393 1.33822 3.27867 1.7575 2.69619 2.33998C2.1137 2.92247 1.69442 3.64773 1.48032 4.44317C0.933337 7.43069 0.667903 10.4629 0.687504 13.5C0.667903 16.5372 0.933337 19.5694 1.48032 22.5569C1.69442 23.3524 2.1137 24.0776 2.69619 24.6601C3.27867 25.2426 4.00393 25.6619 4.79938 25.876C7.72875 26.6688 19.5 26.6688 19.5 26.6688C19.5 26.6688 31.2713 26.6688 34.2006 25.876C34.9961 25.6619 35.7213 25.2426 36.3038 24.6601C36.8863 24.0776 37.3056 23.3524 37.5197 22.5569C38.0667 19.5694 38.3321 16.5372 38.3125 13.5C38.3321 10.4629 38.0667 7.43069 37.5197 4.44317ZM15.7375 19.1438V7.8563L25.5066 13.5L15.7375 19.1438Z" fill="white"/>
</svg>
