<svg width="178" height="25" viewBox="0 0 178 25" fill="none" xmlns="http://www.w3.org/2000/svg">
<path fill-rule="evenodd" clip-rule="evenodd" d="M139.226 5C134.593 5 130.85 8.5756 130.85 13C130.85 17.4244 134.593 21 139.226 21C143.858 21 147.602 17.4244 147.602 13C147.602 8.5756 143.858 5 139.226 5ZM139.226 18.3505C136.371 18.3505 134.028 15.9582 134.028 13.0257C134.028 10.0675 136.344 7.701 139.226 7.701C142.081 7.701 144.424 10.0932 144.424 13.0257C144.424 15.9582 142.108 18.3505 139.226 18.3505ZM91.8506 5.5401C92.6586 5.9003 93.0087 6.8006 92.6317 7.5723L89.9653 12.9485C89.9653 12.9614 89.9585 12.9678 89.9518 12.9742C89.9451 12.9806 89.9383 12.9871 89.9383 12.9999C89.9383 13.0128 89.9451 13.0192 89.9518 13.0257C89.9585 13.0321 89.9653 13.0385 89.9653 13.0514L92.6047 18.4533C92.9549 19.225 92.6317 20.1253 91.8237 20.4855C91.0157 20.8199 90.073 20.5112 89.696 19.7395L87.0565 14.3376V14.3118H83.1781V19.0707C83.1781 19.8938 82.4509 20.5884 81.5891 20.5884C80.7272 20.5884 80 19.9196 80 19.0707V13.5401V12.4083V6.8778C80 6.0546 80.7272 5.3601 81.5891 5.3601C82.4509 5.3601 83.1781 6.0289 83.1781 6.8778V11.6623H87.0834L89.7229 6.2861C90.0999 5.5144 91.0426 5.18 91.8506 5.5401ZM123.901 6.9035C123.901 6.0804 124.601 5.3858 125.49 5.3858C126.379 5.3858 127.079 6.0804 127.079 6.9035V19.0964C127.079 19.9196 126.379 20.6141 125.49 20.6141C124.628 20.6141 123.901 19.9453 123.901 19.0964V14.3376H117.518V19.0964C117.518 19.9196 116.817 20.6141 115.929 20.6141C115.067 20.6141 114.339 19.9453 114.339 19.0964V6.9035C114.339 6.0804 115.04 5.3858 115.929 5.3858C116.79 5.3858 117.518 6.0547 117.518 6.9035V11.6624H123.901V6.9035ZM104.913 6.1576C104.94 6.1833 104.966 6.2347 104.993 6.2862L110.973 18.4019C111.323 19.1736 111 20.074 110.192 20.4341C109.384 20.7685 108.441 20.4598 108.064 19.6881L106.744 16.9872H100.415L99.095 19.6881C98.7179 20.4598 97.7753 20.7942 96.9673 20.4341C96.1593 20.074 95.8091 19.1736 96.1862 18.4019L102.112 6.2605C102.125 6.2347 102.138 6.2154 102.152 6.1962C102.165 6.1769 102.179 6.1576 102.192 6.1318C102.206 6.1061 102.219 6.0868 102.233 6.0675C102.246 6.0482 102.26 6.0289 102.273 6.0032C102.311 5.9853 102.335 5.9549 102.356 5.9293C102.365 5.9183 102.373 5.9081 102.381 5.9003L102.408 5.8746L102.489 5.7974C102.489 5.7974 102.516 5.7717 102.516 5.7974C102.529 5.7846 102.542 5.7781 102.556 5.7717C102.569 5.7653 102.583 5.7589 102.596 5.746C102.623 5.7331 102.643 5.7203 102.664 5.7074C102.684 5.6945 102.704 5.6817 102.731 5.6688C102.731 5.6431 102.758 5.6431 102.758 5.6431C102.771 5.6302 102.792 5.6238 102.812 5.6174C102.832 5.6109 102.852 5.6045 102.866 5.5916C102.879 5.5916 102.886 5.5852 102.893 5.5788C102.899 5.5724 102.906 5.5659 102.92 5.5659C102.933 5.5659 102.946 5.5595 102.96 5.5531C102.973 5.5466 102.987 5.5402 103 5.5402C103.014 5.5402 103.027 5.5338 103.041 5.5273C103.054 5.5209 103.068 5.5145 103.081 5.5145C103.108 5.4888 103.135 5.4888 103.162 5.4888C103.189 5.463 103.216 5.463 103.243 5.463H103.297H103.377H103.458H103.539H103.62H103.701H103.781H103.835C103.862 5.4888 103.889 5.4888 103.916 5.4888C103.93 5.4888 103.943 5.4952 103.956 5.5016C103.97 5.508 103.983 5.5145 103.997 5.5145C104.01 5.5145 104.024 5.5209 104.037 5.5273C104.051 5.5338 104.064 5.5402 104.078 5.5402C104.091 5.5402 104.105 5.5466 104.118 5.5531C104.132 5.5595 104.145 5.5659 104.158 5.5659C104.172 5.5659 104.179 5.5724 104.185 5.5788C104.192 5.5852 104.199 5.5916 104.212 5.5916C104.226 5.6045 104.246 5.6109 104.266 5.6174C104.286 5.6238 104.307 5.6302 104.32 5.6431C104.32 5.6688 104.347 5.6688 104.347 5.6688C104.374 5.6817 104.394 5.6945 104.414 5.7074C104.435 5.7203 104.455 5.7331 104.482 5.746C104.509 5.746 104.536 5.7717 104.562 5.7974C104.589 5.7974 104.589 5.7974 104.616 5.8231L104.697 5.9003L104.724 5.9261C104.787 5.9663 104.834 6.0382 104.877 6.1045L104.878 6.1049C104.889 6.1231 104.901 6.1409 104.913 6.1576ZM103.539 10.5563L101.681 14.3634H105.397L103.539 10.5563ZM177.067 5.5402C176.259 5.1801 175.317 5.5145 174.94 6.2862L171.6 13.1286L168.26 6.2862C167.883 5.5145 166.94 5.2058 166.132 5.5402C165.324 5.9003 165.001 6.8007 165.351 7.5724L169.741 16.5499C169.748 16.562 169.754 16.5756 169.761 16.5899C169.783 16.6363 169.808 16.6906 169.849 16.7299L169.014 18.4534C168.637 19.2251 168.987 20.1254 169.795 20.4855C170.603 20.8457 171.546 20.5113 171.923 19.7396L177.848 7.5981C178.225 6.8007 177.875 5.8746 177.067 5.5402ZM154.551 11.6623H159.453C162.065 11.6623 164.139 13.6688 164.112 16.1125C164.112 18.5819 162.011 20.5884 159.426 20.5884H153.069H153.042H152.962C152.1 20.5884 151.373 19.9196 151.373 19.0707V6.8778C151.373 6.0546 152.073 5.3601 152.962 5.3601H153.042H153.069H161.122C161.957 5.3601 162.604 6.0289 162.523 6.8263C162.442 7.5208 161.796 8.0353 161.069 8.0353H154.551V11.6623ZM154.578 17.9389H159.076C160.099 17.9389 160.961 17.09 160.961 16.1125C160.961 15.135 160.126 14.3118 159.076 14.3118H154.578V17.9389Z" fill="white"/>
<path d="M46.4099 5.5515C45.9246 6.708 47.1379 7.4611 46.7334 7.5687C46.5447 7.6225 37.0541 5.5515 33.4951 4.5563C30.3944 3.7494 31.0146 -0.688444 34.8701 0.0915464C38.483 0.817736 43.9024 2.8887 48.2433 3.6956C49.0252 3.857 47.0031 4.0991 46.4099 5.5515ZM46.3829 12.3024C42.2038 12.6251 34.6005 13.4589 32.093 13.5934C28.1027 13.7817 27.9409 9.1017 31.7965 8.9673C34.8432 8.8597 40.6939 8.5907 45.9515 8.5638C48.2433 8.5369 48.6747 12.1141 46.3829 12.3024ZM48.3512 16.4175C49.5105 13.5665 49.7262 11.9527 48.0546 7.5418C47.3536 5.6859 47.9467 5.2287 48.8634 4.6639C52.9886 2.2432 57.9766 3.1846 59.1899 3.588C60.4032 3.9646 62.5602 4.9597 63.1264 8.0797C63.4769 10.0969 63.3421 12.2217 61.1851 13.7279C59.7561 14.7499 57.8688 14.3196 57.9227 14.6692C57.9766 15.1534 64.07 16.3906 64.3397 10.2314C64.4205 8.268 65.499 13.3244 64.7171 16.4982C64.0161 19.376 62.2636 21.205 58.8664 22.3077C56.1162 23.1953 52.0989 23.0877 51.4248 22.765C50.3463 22.2808 55.0377 19.8333 52.0989 18.5423C49.7262 17.5202 55.2265 17.8968 54.9029 12.1679C54.7951 10.4734 53.9323 8.1604 53.5009 8.1873C53.1234 8.2142 53.3391 8.7252 53.6088 10.85C53.8514 12.8134 53.8514 16.014 50.5081 17.2513C48.9713 17.843 48.1355 16.9285 48.3512 16.4175ZM40.5322 14.5079C39.6963 15.3147 40.64 17.7085 42.3925 17.8968C43.7676 18.0312 45.628 17.7085 46.4369 17.2513C48.0007 16.3637 48.0276 13.9699 46.8143 13.6203C46.302 13.4589 45.4662 13.4858 44.7113 13.5396C41.9072 13.6741 40.9905 14.0506 40.5322 14.5079ZM43.0666 21.7429C43.5519 22.4691 44.2529 22.7919 45.5741 22.8725C46.7334 22.9263 48.3781 22.9801 49.4566 22.5498C51.0474 21.9043 52.045 19.5912 50.0498 18.8381C49.187 18.5154 44.2529 18.5692 43.2553 18.8381C42.77 18.9726 42.3117 19.2685 42.4195 20.156C42.5004 20.8553 42.9048 21.4739 43.0666 21.7429Z" fill="#FF3737"/>
<path d="M18.6314 5.48352C19.1192 6.64402 17.8997 7.66962 18.3062 7.77762C18.5772 7.85862 22.0189 7.93952 23.2114 7.72362C24.7019 7.50772 24.4038 5.48352 23.6721 4.43092C23.3469 3.94502 22.7778 3.32432 21.0162 3.16232C19.9864 3.05442 17.9268 3.10842 15.9755 3.35132C15.1896 3.45922 18.0352 4.02602 18.6314 5.48352ZM22.046 21.7583C21.5582 22.487 20.8536 22.8109 19.5257 22.8918C18.3604 22.9458 16.7072 22.9998 15.6232 22.568C14.0243 21.9202 13.0216 19.5991 15.027 18.8434C15.8942 18.5195 20.8536 18.5735 21.8563 18.8434C22.3441 18.9783 22.8049 19.2752 22.6965 20.1659C22.6152 20.8676 22.2357 21.4884 22.046 21.7583ZM25 10.8004C25 12.9866 23.8076 12.9596 22.7236 12.9866C20.8265 13.0406 18.6043 12.7977 17.9539 12.6627C16.7343 12.4198 16.6259 10.9354 17.2492 9.74782C17.7642 8.77622 18.4146 8.64132 18.9024 8.61432C20.3929 8.53332 22.7507 8.61432 23.4011 8.72222C24.5122 8.91122 25 9.37002 25 10.8004ZM24.2141 14.2821C25.1084 15.0108 24.4309 17.4939 22.6694 17.8448C21.3143 18.1147 19.4173 17.9797 18.5772 17.6019C16.924 16.8461 16.6801 14.471 17.8455 14.0122C18.3604 13.8233 19.1734 13.7693 19.9322 13.7153C22.7507 13.6074 23.6992 13.9043 24.2141 14.2821ZM13.6449 22.7839C12.9674 23.0808 8.92939 23.1887 6.16513 22.3251C2.72337 21.2185 0.988935 19.3832 0.284321 16.4953C-0.501594 13.3105 0.582425 8.23642 0.663727 10.2067C0.934732 16.3873 7.05945 15.1458 7.11365 14.66C7.14075 14.3361 5.27082 14.7409 3.83449 13.7153C1.66645 12.2039 1.53094 10.0717 1.88325 8.04752C2.42526 4.88972 4.5933 3.91802 5.81283 3.51322C7.03235 3.13532 12.0459 2.16372 16.1923 4.59282C17.1137 5.13262 17.71 5.61842 17.0053 7.48072C15.298 11.907 15.5148 13.5264 16.6801 16.3873C16.8969 16.9001 16.0568 17.8178 14.5392 17.251C11.1787 16.0095 11.1787 12.7977 11.4226 10.8274C11.6936 8.69522 11.9104 8.18242 11.531 8.15542C11.1245 8.12842 10.2302 10.4496 10.1218 12.1499C9.7966 17.8987 15.298 17.5209 12.9403 18.5465C10.0134 19.815 14.7289 22.2981 13.6449 22.7839Z" fill="#0087FF"/>
</svg>
