<svg width="360" height="191" viewBox="0 0 360 191" fill="none" xmlns="http://www.w3.org/2000/svg">
<path d="M165.683 32.8067C165.586 32.8067 165.586 32.7096 165.489 32.7096C165.683 32.8067 165.586 32.7096 165.683 32.8067ZM145.592 163.257L145.689 163.16H145.495C145.495 163.354 145.398 163.16 145.592 163.257ZM195.384 29.7007L195.287 29.6037C195.287 29.6037 195.287 29.7007 195.19 29.7978C195.287 29.7007 195.384 29.7007 195.384 29.7007ZM126.568 43.9687C126.665 43.9687 126.665 43.8717 126.762 43.8717H126.665L126.568 43.9687ZM143.554 158.21C143.554 158.21 143.651 158.21 143.651 158.307L143.748 158.21L143.651 158.113L143.554 158.21ZM108.514 42.7069C108.514 42.7069 108.417 42.7069 108.417 42.6099C108.32 42.9011 108.32 43.0952 108.223 43.3864V43.4834H108.32C108.417 43.1922 108.417 42.9981 108.514 42.7069ZM143.748 156.56C143.845 156.657 143.748 156.657 143.845 156.56H143.748ZM144.233 164.422H144.427C144.33 164.325 144.33 164.325 144.136 164.325C144.233 164.325 144.233 164.422 144.233 164.422ZM105.797 50.5689C105.797 50.5689 105.797 50.666 105.7 50.666L105.894 50.8601C105.991 50.5689 105.991 50.6659 105.797 50.5689ZM105.214 69.0105C105.117 69.2046 105.117 69.3988 105.117 69.5929L123.656 112.494C123.753 112.688 123.947 112.882 124.141 112.882L131.518 112.688C131.712 112.688 131.906 112.591 132.003 112.397L151.027 68.3311C151.124 68.137 151.124 67.9428 150.93 67.7487C150.833 67.5546 150.639 67.4575 150.445 67.4575L141.903 67.7487C141.709 67.7487 141.515 67.9428 141.418 68.137L128.994 96.8671L116.959 68.8164C116.862 68.6223 116.668 68.5252 116.376 68.4281L105.603 68.7193C105.506 68.7193 105.311 68.8164 105.214 69.0105ZM187.425 27.8566C187.328 27.8566 187.328 27.8566 187.328 27.9536C187.328 28.0507 187.328 28.0507 187.231 28.1477C187.522 28.1477 187.716 28.2448 188.008 28.2448C187.91 28.1477 187.813 28.0507 187.716 27.9536C187.619 27.8566 187.522 27.8566 187.425 27.8566ZM193.055 26.7889C193.055 26.7889 193.152 26.7889 193.152 26.6918V26.5948C193.055 26.5948 192.958 26.5948 192.861 26.4977C192.958 26.6918 193.055 26.6918 193.055 26.7889ZM192.958 26.4977L193.055 26.4007H192.958V26.4977ZM194.608 28.3419C194.608 28.4389 194.608 28.4389 194.511 28.536H194.899C194.899 28.3419 194.899 28.4389 194.608 28.3419ZM193.54 25.333C193.54 25.43 193.54 25.43 193.443 25.5271C193.637 25.43 193.54 25.5271 193.637 25.333H193.54ZM167.722 32.6126C167.625 32.6126 167.528 32.7096 167.431 32.7096V32.8067C167.625 32.8067 167.819 32.8067 167.916 32.9037V32.8067C167.819 32.6126 167.916 32.6126 167.722 32.6126ZM168.692 33.0979C168.595 33.0008 168.595 33.0008 168.401 33.0008C168.401 33.0008 168.401 33.0979 168.304 33.0979C168.401 33.0979 168.498 33.1949 168.595 33.1949H168.692V33.0979ZM171.604 29.7978C171.604 29.9919 171.604 29.8948 171.701 30.089L171.798 29.9919C171.701 29.8949 171.701 29.7978 171.604 29.7978ZM171.895 30.089L171.992 29.9919H171.895V30.089ZM187.037 29.1184C187.91 29.3125 191.405 30.089 191.696 30.3802H191.502C191.89 30.5743 192.181 30.6713 192.569 30.7684C192.666 30.6713 192.666 30.6713 192.666 30.4772C192.861 30.5743 193.152 30.6713 193.346 30.7684C192.958 30.9625 192.472 31.0596 191.696 31.0596C191.696 31.1566 191.696 31.1566 191.599 31.2537C192.666 31.642 193.637 31.1566 194.511 30.8655C194.608 30.9625 194.705 31.0596 194.705 31.1566C194.705 31.5449 194.414 31.739 194.219 31.9331C194.317 32.1273 194.219 32.1273 194.414 32.2243C194.705 32.1273 194.899 32.0302 195.19 32.0302C195.093 32.2243 195.093 32.3214 194.996 32.6126C195.287 32.7096 195.481 32.7096 195.772 32.8067C196.161 32.6126 196.258 32.2243 196.646 31.9331C196.646 31.8361 196.646 31.642 196.549 31.5449C196.258 31.4478 196.258 31.739 195.772 31.739V31.5449C195.967 31.3508 196.064 31.1566 196.355 31.0596C196.355 31.0596 196.355 30.9625 196.452 30.9625L196.355 30.8655C195.675 30.8655 195.578 31.0596 195.19 31.3508C195.19 31.2537 195.093 31.1566 195.093 31.1566C194.996 31.1566 195.093 31.2537 194.899 31.0596C195.287 30.7684 195.967 30.5743 196.161 30.3802L196.258 30.2831C196.064 30.089 195.481 30.089 195.093 30.089C195.19 29.7978 195.093 29.9919 194.996 29.6037C195.287 29.5066 195.384 29.5066 195.578 29.3125C195.19 29.0213 194.705 28.7301 194.219 28.7301C194.025 28.536 194.219 28.4389 193.831 28.2448C193.637 28.3419 193.831 28.3419 193.637 28.3419C193.637 28.4389 193.54 28.4389 193.734 28.536H193.443C193.152 28.536 193.249 28.536 193.249 28.2448C192.958 28.2448 193.055 28.2448 193.055 28.3419C192.861 28.2448 192.764 28.1477 192.569 28.1477C192.569 28.0507 192.666 28.0507 192.666 27.9536C192.472 27.8566 192.569 27.8566 192.375 27.9536L192.278 27.8566V27.6624H192.861V27.5654C192.569 27.3713 192.181 27.3713 191.89 27.0801C191.599 27.1771 191.308 27.3713 190.919 27.4683C191.114 26.983 191.987 26.4977 192.472 26.4007C192.569 26.3036 192.666 26.2065 192.666 26.1095C192.472 26.0124 192.472 25.9153 192.278 25.9153V25.8183V25.7212C192.569 25.8183 192.764 25.9153 193.055 25.8183L193.152 25.7212C193.152 25.6242 193.152 25.6242 193.249 25.5271C192.958 25.43 192.666 25.333 192.375 25.2359H191.405C191.211 25.2359 190.628 25.6242 190.337 25.7212C189.755 26.0124 189.561 26.6918 188.784 26.886C188.687 27.0801 188.687 27.0801 188.784 27.2742V27.3713C188.59 27.3713 188.59 27.3713 188.493 27.2742C188.202 27.3713 188.008 27.5654 187.813 27.7595C187.91 27.8566 188.008 27.9536 188.105 28.0507C187.619 27.9536 187.134 28.2448 186.649 28.3419C186.94 28.7301 186.94 28.9242 187.037 29.1184ZM175.098 29.7007H174.904C174.807 29.7978 174.807 29.7978 174.71 29.8949C174.71 29.8949 174.807 29.8949 174.807 29.9919C175.001 29.7978 175.001 29.8948 175.098 29.7007ZM157.045 67.5546C156.948 67.6517 156.851 67.8458 156.851 67.9428L157.142 111.426C157.142 111.717 157.433 112.009 157.724 112.009H192.764C192.958 112.009 193.055 111.912 193.152 111.815C193.249 111.717 193.346 111.62 193.346 111.426V102.885C193.346 102.594 193.055 102.303 192.764 102.303H168.207V94.1494H184.513C184.707 94.1494 184.805 94.0523 184.902 93.9552C184.999 93.8582 185.096 93.6641 185.096 93.567V85.0256C185.096 84.7344 184.805 84.4433 184.513 84.4433H168.207V76.8725H192.472C192.666 76.8725 192.764 76.7754 192.861 76.6784C192.958 76.5813 193.055 76.3872 193.055 76.2901V67.8458C193.055 67.5546 192.764 67.2634 192.472 67.2634H157.627C157.336 67.3605 157.142 67.4575 157.045 67.5546ZM258.959 55.7131C259.056 55.8102 259.056 55.8102 259.153 55.9072V55.7131C259.056 55.6161 258.959 55.6161 258.862 55.519C258.959 55.519 258.959 55.6161 258.959 55.7131ZM260.998 58.2367L261.095 58.1397C260.998 58.0426 260.901 57.9455 260.901 57.9455C260.901 58.0426 260.998 58.1397 260.998 58.2367ZM258.862 52.413C258.959 52.316 258.959 52.316 259.056 52.316C258.959 52.2189 258.862 52.1219 258.765 52.0248C258.765 52.1219 258.862 52.2189 258.862 52.316C258.765 52.2189 258.765 52.2189 258.668 52.1219C258.765 52.2189 258.862 52.316 258.862 52.413ZM258.765 55.2278C258.862 55.2278 258.862 55.2278 258.959 55.3249V55.2278C258.862 55.0337 258.765 54.8396 258.571 54.6455V55.0337C258.668 55.1308 258.668 55.1308 258.765 55.2278ZM257.795 53.0925C257.698 52.9954 257.697 52.8984 257.6 52.8013C257.6 52.8984 257.698 52.9954 257.795 53.0925ZM110.359 31.2537C110.262 31.5449 110.164 31.739 109.97 32.0302C109.776 32.2243 109.582 32.4184 109.388 32.7096C109.291 33.0008 108.32 35.3303 108.32 35.4273H108.806C108.709 36.1068 109.097 36.1068 109 36.9803C108.709 38.2421 107.835 39.698 107.447 41.1539C107.35 41.4451 107.059 42.1246 107.156 42.5128C107.253 42.9981 107.447 43.5805 107.253 44.1628C107.059 44.454 106.864 44.8423 106.67 45.2305C106.379 45.2305 106.379 45.3276 106.088 45.2305C105.991 45.9099 106.282 46.3953 106.282 46.9776C106.476 46.9776 106.379 46.9776 106.476 46.8806C106.864 47.9482 106.67 49.113 105.894 49.8895C106.088 50.9571 106.67 51.4424 106.476 53.0925V53.1895H106.573C107.544 52.2189 107.253 52.316 107.35 51.0542C107.35 50.9571 107.253 50.8601 107.253 50.666C107.156 50.763 107.059 50.8601 107.059 50.9571H106.961C106.864 50.1806 107.641 48.1424 107.835 47.2688C107.932 46.6864 107.641 45.7158 107.738 45.1335C108.126 43.5805 108.223 40.2804 109.582 39.3098C109.679 39.4068 109.679 39.5039 109.776 39.601C109.873 39.601 109.873 39.5039 109.97 39.5039C110.262 40.3775 109.097 41.7363 109.291 42.9981C109 43.1922 108.903 43.3864 108.709 43.6775C108.709 43.6775 108.806 43.7746 108.903 43.7746C109 43.6775 109.097 43.5805 109.194 43.4834C109.194 43.7746 109 44.7452 109.291 45.0364C109.388 45.1335 109.291 45.1335 109.485 45.0364L109.582 45.1335C109.388 45.5217 109.291 45.6188 109.291 46.2011C109.388 46.2982 109.388 46.2982 109.582 46.2982C109.485 46.4923 109.485 46.6864 109.388 46.9776H109.679C109.679 47.6571 109.388 47.8512 109.097 48.3365C109.194 48.9188 109.485 49.113 109.776 49.5983C109.582 49.7924 109.582 49.9865 109.485 50.2777C109.97 50.9571 110.65 55.519 109.679 56.1984C109.485 56.4896 109.485 56.4896 109.582 56.7808C109.388 56.9749 109.291 56.9749 109.097 57.072C108.417 58.8191 109.97 59.3044 109.97 60.7603C110.067 60.8574 110.164 60.9544 110.359 60.9544C110.359 60.9544 116.182 60.7603 119.579 60.6632C119.676 60.6632 119.288 60.5662 119.191 60.3721C118.997 60.275 118.415 56.6837 118.512 56.1984C118.609 56.0043 118.803 55.8102 118.9 55.6161C118.415 54.5484 119.191 53.3837 119.579 52.413C119.968 51.5395 120.259 50.6659 120.647 49.7924C120.938 49.4042 121.618 49.5012 121.812 48.7247C121.909 48.2394 121.715 47.7541 122.006 47.1717C122.2 46.5894 122.879 46.3953 122.782 45.7158C123.074 45.7158 123.656 45.5217 123.753 45.2305C123.85 45.1335 123.85 45.0364 123.947 44.9393C123.947 45.1335 123.947 45.0364 123.85 45.2305C124.141 45.1335 124.044 45.0364 124.141 45.1335C124.238 45.0364 124.238 44.9393 124.335 44.8423C124.238 44.7452 124.238 44.6482 124.141 44.6482C125.015 44.7452 125.694 44.357 126.471 43.9687C126.956 44.0658 126.762 43.7746 126.762 43.4834C126.859 43.3864 126.956 43.2893 127.15 43.1922V43.2893C127.053 43.3864 127.053 43.4834 126.956 43.4834C127.053 43.4834 127.053 43.5805 127.15 43.5805C127.344 43.7746 128.218 43.2893 128.703 43.3864C129.188 43.4834 130.256 43.8717 130.547 44.0658H130.741V43.8717H130.353C130.353 43.7746 130.353 43.7746 130.256 43.6775C130.45 43.6775 130.547 43.5805 130.644 43.5805C130.644 43.7746 130.936 44.0658 131.13 44.2599C131.13 44.2599 131.033 44.2599 131.033 44.357C131.033 44.454 130.936 44.454 130.936 44.5511C131.13 44.6482 131.227 44.8423 131.421 44.9393C131.712 44.8423 131.906 44.7452 132.1 44.6482C132.1 44.7452 132.197 44.8423 132.197 45.0364C132.586 44.9393 132.586 44.7452 132.78 44.5511C132.974 44.7452 133.168 45.1335 133.459 45.2305C133.556 45.2305 133.556 45.3276 133.653 45.3276H133.75C133.847 45.2305 133.847 45.1335 133.944 45.0364C133.75 44.8423 133.556 44.7452 133.459 44.5511L133.362 44.454C133.556 44.2599 133.653 44.2599 133.944 44.1628C134.042 43.9687 134.042 43.9687 134.042 43.6775C133.944 43.7746 133.75 43.8717 133.653 43.8717H133.556C133.556 43.7746 133.459 43.7746 133.459 43.6775C134.236 43.1922 135.206 43.2893 136.08 43.4834C136.177 43.3864 136.177 43.1922 136.274 43.0952C136.371 43.0952 136.371 42.9981 136.468 42.9981V43.6775C137.633 43.7746 138.506 43.3864 139.38 44.2599C139.574 44.454 139.574 44.8423 139.671 44.9393C140.059 45.2305 141.127 44.6482 141.709 44.6482C141.903 44.9393 142.486 46.2011 142.777 46.2982C143.165 47.2688 142.001 47.7541 142.098 48.5306H142.195C142.389 48.3365 142.389 48.3365 142.292 48.1424C142.292 48.1424 142.389 48.1424 142.389 48.0453C142.486 48.3365 142.389 48.2394 142.68 48.3365C142.486 48.5306 142.292 48.6277 142.098 48.8218C142.001 49.0159 142.195 49.5012 142.195 49.9865C142.292 50.0836 142.389 50.0836 142.486 50.0836C142.486 49.9865 142.583 49.8895 142.583 49.8895C142.583 49.8895 142.583 49.9865 142.68 49.9865C142.486 50.2777 142.486 50.3748 142.292 50.5689C142.389 50.5689 142.389 50.5689 142.486 50.4718C142.583 50.6659 142.68 50.763 142.583 51.0542C142.583 51.8307 143.456 51.8307 143.068 52.7042C143.359 53.0925 144.33 52.8984 144.524 52.8984C144.524 52.2189 145.301 51.5395 145.592 50.9571C145.98 50.1806 145.592 49.0159 145.592 48.0453C145.689 48.0453 145.786 47.9482 145.883 47.9482C145.786 47.2688 145.592 46.4923 145.495 45.7158C145.786 42.901 148.018 42.2216 150.251 41.5422C151.318 41.251 150.93 40.2804 152.871 40.6686C153.357 39.7951 155.007 39.8922 155.977 39.698C155.977 39.698 155.977 39.601 156.074 39.601C155.88 39.5039 155.88 39.5039 155.783 39.3098V39.2127C156.074 39.0186 156.851 38.9215 157.142 38.9215C157.239 38.7274 157.336 38.6304 157.433 38.5333C157.239 38.2421 156.851 38.1451 156.463 38.1451V38.048C156.851 38.1451 157.142 38.1451 157.433 38.2421V38.6304C157.433 38.6304 157.627 37.5627 157.627 36.9803C157.53 36.9803 157.433 36.8833 157.336 36.8833C157.142 36.7862 157.336 36.8833 157.336 36.5921C157.336 36.398 157.724 35.8156 157.919 35.6215C157.724 35.5244 157.919 34.6508 157.919 34.3597C158.21 34.1655 158.404 33.9714 158.695 33.6802C158.113 34.5538 158.404 34.5538 158.21 35.5244C158.404 35.5244 158.501 35.6215 158.695 35.7185C158.404 36.0097 158.113 36.1068 157.919 36.495C157.919 36.495 157.919 36.5921 157.822 36.5921C157.919 36.6891 157.919 36.6891 158.113 36.6891C158.404 36.1068 159.666 35.6215 160.151 34.7479C159.86 34.3597 159.957 34.1655 159.86 33.7773C160.054 33.9714 160.151 34.1655 160.539 34.2626C160.442 34.3597 160.345 34.4567 160.345 34.5538C161.122 34.6508 162.286 33.5832 162.578 33.0979C162.48 32.9037 162.578 33.0008 162.383 32.9037V32.8067C163.354 32.7096 164.713 33.0008 165.683 32.9037C165.586 32.8067 165.489 32.7096 165.392 32.6126C164.616 32.7096 163.936 32.4184 163.16 32.6126C164.131 31.8361 166.945 32.9037 168.207 32.4184C168.304 32.7096 168.595 32.7096 169.275 32.7096C169.372 32.6126 169.372 32.5155 169.469 32.4184C169.469 32.3214 169.372 32.2243 169.275 32.1273C169.178 32.4184 169.275 32.4184 168.984 32.4184C168.887 32.4184 168.692 32.4184 168.595 32.3214C168.498 32.0302 168.595 31.5449 168.11 31.4478V31.3508C168.401 31.2537 168.595 31.2537 168.886 31.1566C168.789 31.0596 168.692 30.9625 168.692 30.8655C169.081 30.3802 169.76 30.186 170.148 29.8949C170.925 30.089 171.507 30.089 172.284 29.6037C172.381 29.7978 172.381 29.7007 172.381 29.8949C173.351 29.7978 174.322 29.8948 175.39 29.6037C175.293 29.5066 175.293 29.4095 175.195 29.3125C175.293 29.3125 175.875 29.5066 176.069 29.5066C176.846 29.7007 178.398 29.5066 179.078 29.3125L179.175 29.4095C178.884 29.5066 178.69 29.5066 178.398 29.6037C178.398 29.6037 178.398 29.7007 178.301 29.7007C178.593 29.7978 178.884 29.7978 179.175 29.8949C178.204 30.089 177.137 30.186 176.166 30.3802C176.166 30.3802 176.166 30.4772 176.069 30.4772C176.166 30.4772 176.263 30.3802 176.457 30.3802C176.36 30.3802 176.263 30.4772 176.263 30.4772C175.972 30.7684 175.972 30.7684 175.972 31.3508H176.263C176.457 31.642 176.36 31.8361 176.748 31.8361C177.428 31.8361 178.204 31.3508 178.981 31.3508C179.078 31.1566 178.981 31.0596 179.272 30.9625C179.369 31.0596 179.369 31.0596 179.369 31.1566C179.466 31.0596 179.466 31.0596 179.563 30.9625C179.66 31.2537 179.757 31.2537 180.049 31.3508C180.534 30.8655 183.252 31.4478 184.125 31.2537H184.222C184.028 31.0596 183.931 31.0596 183.543 31.0596C183.64 30.9625 183.737 30.9625 183.834 30.8655C184.513 31.0596 185.193 30.9625 186.066 30.9625V30.7684C186.163 30.4772 185.678 30.186 185.29 30.186V30.089C185.387 29.8948 185.581 29.7978 185.678 29.6037C185.581 29.4095 185.581 29.5066 185.581 29.3125C185.484 29.3125 185.387 29.2154 185.29 29.2154C184.805 29.5066 183.543 29.7978 183.543 30.4772C183.154 30.5743 182.96 30.4772 182.96 30.089C181.796 30.186 181.31 29.6037 180.243 29.5066C180.146 29.4095 180.049 29.3125 180.049 29.2154H180.243C180.243 29.2154 180.243 29.1184 180.34 29.1184C180.049 29.0213 179.66 28.8272 179.369 28.7301C179.175 28.6331 179.078 28.1478 178.884 27.8566C178.981 27.7595 179.078 27.7595 179.175 27.6624C179.078 27.5654 178.884 27.4683 178.593 27.4683V27.3713C179.175 27.2742 179.369 26.983 179.951 26.7889C179.951 26.6918 180.049 26.6918 180.049 26.5948V26.4977C179.466 26.6918 179.078 26.5948 178.301 26.5948C178.204 26.2065 177.913 26.1095 177.525 26.0124C177.525 26.0124 177.525 25.9153 177.428 25.9153C178.107 26.0124 178.398 26.3036 178.981 26.4007C179.563 26.3036 180.049 26.3036 180.631 26.2065V26.0124C180.825 25.9153 180.631 25.9153 180.534 25.7212C180.631 25.7212 180.728 25.8183 180.728 25.8183V25.7212C179.466 23.9741 174.904 24.6535 172.963 24.9447C172.187 25.1389 171.604 25.8183 170.634 25.8183C171.119 25.43 173.837 24.3624 174.71 24.0712C174.71 24.0712 176.457 24.1682 176.554 24.1682C176.748 23.9741 176.846 23.78 177.04 23.6829C177.719 23.2947 178.787 23.4888 179.757 23.6829C181.019 24.0712 182.087 24.1682 183.349 24.5565C184.125 24.8477 186.358 25.7212 187.134 25.6242C187.716 25.5271 188.299 25.333 188.784 25.1389C190.046 24.6535 192.569 25.9153 193.443 24.9447C193.54 24.7506 193.443 24.9447 193.346 24.6535C193.346 24.6535 193.443 24.6535 193.443 24.7506C193.637 24.4594 193.443 23.6829 193.637 23.3917C193.346 23.2947 193.055 23.1976 192.764 23.0035C192.764 22.8094 192.764 23.0035 192.861 22.8094C192.278 22.8094 192.278 22.6153 191.89 22.6153C191.793 22.0329 191.211 21.8388 190.628 21.7417V21.6446C191.114 21.7417 191.502 21.7417 191.987 21.8388C191.696 21.4505 191.114 21.4505 191.114 21.0623C190.725 20.9652 190.337 21.0623 189.949 20.7711C189.755 20.674 189.852 20.674 189.755 20.4799C189.561 20.2858 188.978 20.3829 188.784 20.1887C188.59 19.9946 188.493 19.8005 188.202 19.6064C188.105 19.4122 188.105 19.5093 188.299 19.3152C188.299 19.2181 187.328 18.5387 186.94 18.4416C187.134 18.2475 187.037 18.3446 187.231 18.3446C187.231 18.2475 187.231 17.9563 187.328 17.5681C187.231 17.471 187.134 17.471 186.94 17.374C186.94 17.374 187.037 17.0828 187.037 16.7916C186.552 16.5975 186.066 16.4033 186.066 15.821H185.775C185.484 15.3357 184.222 13.7827 184.319 13.2974C183.057 13.6856 181.407 15.7239 179.66 14.268C179.369 14.268 179.175 13.8798 178.593 13.7827C178.593 13.5886 178.593 13.4915 178.496 13.2974C178.398 13.2974 178.301 13.2974 178.107 13.2003C178.301 12.8121 178.398 12.715 178.398 12.1326C178.593 12.0356 178.787 12.0356 178.981 11.9385C178.981 11.8415 178.884 11.7444 178.787 11.7444C178.593 11.8415 178.496 11.8415 178.301 11.9385C177.913 11.5503 177.234 11.3562 176.554 11.2591V11.162V11.065C176.651 10.9679 176.651 10.9679 176.846 10.9679V10.8709C176.457 10.4826 175.584 9.90024 175.098 9.70612H173.837C172.769 9.31787 171.701 8.92963 170.634 8.92963C170.537 9.02669 170.439 9.12375 170.342 9.22081C170.342 9.31787 170.342 9.31788 170.245 9.41494C170.342 9.512 170.342 9.512 170.537 9.60906C170.342 9.90024 170.051 9.9973 169.566 10.0944C169.954 10.5797 169.663 10.5797 169.954 10.9679C169.76 11.162 168.498 11.6473 168.013 11.6473C167.916 11.7444 167.916 11.8415 167.819 11.9385C168.498 12.1327 169.081 12.618 169.081 13.4915C168.498 14.6562 167.236 14.8504 165.781 15.1415C165.198 15.1415 164.713 15.1416 164.131 15.2386H164.033C164.033 15.4327 164.033 15.7239 164.325 15.918C164.033 16.5004 163.451 17.0828 163.839 17.6651C163.548 17.8593 163.16 18.1504 162.869 18.1504V18.6358C162.772 18.6358 162.772 18.6358 162.675 18.7328C162.675 18.5387 162.578 18.5387 162.48 18.3446C162.092 18.4416 161.801 18.5387 161.51 18.7328C161.316 18.6358 161.122 18.5387 161.025 18.4416C160.83 17.6651 160.345 17.0828 159.957 16.4033C160.248 16.1122 160.442 15.918 160.636 15.6269C160.636 15.5298 160.636 15.3357 160.539 15.2386C160.83 14.9474 161.122 14.7533 161.413 14.3651C160.345 14.268 157.239 13.2974 156.657 12.715C156.463 12.5209 156.366 12.0356 156.074 11.8415C155.589 11.6473 155.104 11.3562 154.618 11.162H152.968H152.871C153.26 10.7738 153.454 10.1914 153.842 9.70612C153.551 9.60906 153.163 9.512 152.774 9.60906V9.41494C153.842 8.2502 157.045 6.98841 158.501 7.08547C158.404 6.98841 158.307 6.89135 158.307 6.89135C158.792 6.89135 159.374 6.98841 159.957 6.89135C160.151 6.69723 160.151 6.60016 159.957 6.5031H160.151C161.219 6.60016 163.451 6.5031 164.519 6.0178C164.616 5.92073 164.616 5.92074 164.519 5.92074C165.295 5.82367 165.975 5.72661 166.751 5.72661C166.751 5.72661 166.751 5.82367 166.654 5.82367C165.683 5.72661 164.616 6.21192 164.325 6.89135C163.839 6.89135 163.354 6.89135 163.16 7.08547C163.451 7.27959 164.13 7.18253 164.519 7.27959C164.422 7.27959 164.325 7.37665 164.325 7.47371C164.228 7.57077 164.228 7.66783 164.131 7.7649C164.907 7.86196 166.072 7.66784 166.654 7.37665C166.945 7.47371 167.236 7.57078 167.528 7.66784C167.431 7.66784 167.334 7.7649 167.236 7.7649C167.722 8.15314 168.595 8.15314 169.566 8.15314C169.469 8.05608 169.469 7.95902 169.372 7.86196C169.081 7.7649 168.789 7.66784 168.401 7.66784C168.498 7.57078 168.498 7.37665 168.595 7.27959C168.207 6.98841 167.334 6.79429 167.139 6.40604C166.945 6.21192 167.139 6.0178 166.945 5.92074H167.236C167.528 6.11486 167.916 6.40604 168.11 6.5031L168.207 6.40604L168.304 6.30898C168.207 6.30898 168.207 6.30898 168.11 6.40604C168.013 6.21192 168.013 6.21192 167.722 6.0178V5.92074C167.916 6.0178 168.11 6.11486 168.207 6.11486V5.82367H168.401C168.498 5.92073 168.692 6.0178 168.789 6.11486V6.0178C169.566 5.82367 170.342 5.82367 171.022 5.62955C172.575 5.53249 174.225 5.43543 175.875 5.43543C176.166 5.53249 177.04 5.53249 177.234 5.53249C177.234 5.53249 177.234 5.62955 177.331 5.62955C177.137 5.72661 177.04 5.53249 176.846 5.62955H176.166C176.36 6.0178 176.651 5.92073 176.943 5.82367C177.04 5.92073 177.04 6.11486 177.137 6.21192C176.943 6.11486 176.748 6.11486 176.457 6.11486C176.554 6.5031 177.234 6.5031 177.622 6.60016C177.622 6.5031 177.622 6.40604 177.719 6.40604C177.525 6.40604 177.331 6.30898 177.234 6.30898C177.234 6.21192 177.234 6.11486 177.331 6.0178C177.622 6.11486 177.816 6.30898 178.204 6.40604C178.301 6.69723 178.398 6.89135 178.496 7.18253C177.719 7.27959 176.846 7.37665 176.069 7.47371C176.069 7.47371 176.069 7.57078 175.972 7.57078C176.166 7.7649 176.36 7.86196 176.457 8.05608V8.15314C175.875 7.95902 175.293 8.15314 174.71 8.05608C173.545 7.86196 172.672 7.27959 171.604 7.95902C171.604 8.05608 171.604 8.05608 171.701 8.15314C171.992 8.73551 173.06 8.54139 173.642 8.63845C174.322 8.73551 175.195 8.83257 175.875 9.12375C176.554 9.41494 176.748 9.90025 177.525 9.99731C177.331 10.0944 177.234 10.0944 177.04 9.99731C177.234 10.2885 177.428 10.4826 177.913 10.5797C177.816 10.5797 177.816 10.6767 177.719 10.6767C177.913 10.8709 178.01 10.9679 178.301 11.162H178.496C178.398 10.9679 178.496 10.9679 178.301 10.8709C179.757 11.3562 181.213 12.4238 182.96 12.715C183.057 12.5209 182.96 12.618 183.154 12.5209V12.4238C182.669 11.7444 181.407 11.065 180.631 10.6767C180.631 10.5797 180.631 10.5797 180.534 10.4826C180.825 10.6767 181.213 10.8709 181.504 10.9679V10.7738C182.475 11.3562 183.543 12.0356 184.416 12.5209H184.805V12.4238C184.513 12.2297 184.319 12.2297 184.125 11.9385C184.319 12.0356 184.416 12.0356 184.513 12.1326H184.61C184.61 11.9385 184.61 11.9385 184.416 11.7444C184.416 11.7444 184.416 11.6473 184.513 11.6473C184.61 11.7444 184.61 11.6473 184.707 11.8415C184.999 11.8415 184.902 11.7444 185.096 11.6473C185.193 11.8415 185.193 11.8415 185.387 11.9385H185.484C185.484 11.8415 185.387 11.8415 185.387 11.7444H185.775V11.6473C185.484 11.4532 185.193 11.2591 184.805 11.162C184.805 11.162 184.805 11.065 184.707 11.065H184.999V10.5797C184.707 10.2885 183.834 9.60906 183.154 9.70612C183.154 9.41494 182.96 9.02669 182.669 8.92963H183.057C183.057 8.92963 183.057 8.83257 183.154 8.83257C183.057 8.73551 183.057 8.73551 182.96 8.63845C183.64 8.73551 184.222 9.22081 184.805 9.22081C184.61 9.90024 185.969 10.0944 186.358 10.4826C186.746 10.3856 186.649 10.2885 186.94 10.2885C186.843 10.2885 186.843 10.1914 186.746 10.1914C186.843 9.9973 186.746 10.0944 186.94 9.99731C187.231 10.0944 187.425 10.1914 187.716 10.0944V10.2885H188.105C188.105 10.1914 188.008 10.1914 187.91 10.0944C188.105 9.9973 187.91 10.0944 188.105 10.0944H188.299C188.202 9.9973 188.202 9.90024 188.105 9.80318C188.59 9.90024 188.784 9.90024 189.172 9.80318C189.075 9.41494 188.493 9.22081 187.91 9.22081C187.813 9.12375 187.91 9.12375 188.105 9.12375H187.619C187.425 9.02669 187.328 8.73551 186.746 8.73551C186.843 8.63845 186.746 8.63845 186.94 8.63845C186.746 8.44433 186.26 8.2502 185.969 8.2502L185.872 8.15314C185.969 8.15314 185.969 8.05608 186.066 8.05608C185.484 7.95902 185.387 7.7649 184.999 7.95902C184.707 7.66784 184.707 7.57077 184.222 7.47371C184.222 7.37665 184.319 7.37665 184.319 7.27959C183.931 7.18253 183.543 7.08547 183.057 6.98841V6.89135C183.154 6.89135 183.252 6.89135 183.349 6.79428C183.349 6.60016 183.349 6.69722 183.252 6.5031L184.416 6.79428L184.513 6.69722C184.319 6.5031 183.931 6.30898 183.543 6.30898V6.11486C183.737 6.21192 183.931 6.21192 184.125 6.30898H184.222V6.11486C183.737 5.72661 183.64 5.72661 182.96 5.82367C183.154 5.62955 183.154 5.62955 183.446 5.62955V5.53249C183.446 5.53249 183.349 5.53249 183.349 5.43543C184.805 5.53249 186.26 5.62955 187.716 5.82367V5.92074C188.493 6.11486 189.172 6.40604 190.24 6.30898V6.21192C190.24 6.21192 190.143 6.21192 190.143 6.11486H190.531C190.628 6.21192 190.822 6.30898 190.919 6.30898C191.016 6.21192 191.016 6.21192 191.114 6.21192C190.919 6.5031 190.725 6.60016 190.822 6.89135C189.755 6.69723 188.881 6.30898 188.493 7.57078C188.59 7.66784 188.784 7.7649 188.881 7.86196C188.784 7.86196 188.687 7.95902 188.59 7.95902C188.59 8.05608 188.59 8.15314 188.493 8.2502C188.978 8.63845 189.172 8.83257 189.755 9.12375C189.755 9.31788 189.852 9.512 189.852 9.80318C189.949 9.90024 189.949 9.90024 190.143 9.90024C190.337 10.0944 190.24 10.2885 190.337 10.4826C190.628 10.8709 191.793 11.4532 192.084 11.8415C192.181 11.9385 192.084 12.1327 192.278 12.3268C192.667 12.618 193.152 12.8121 193.54 13.1033C193.637 13.2003 193.54 13.1033 193.54 13.2003C194.317 13.5886 195.578 13.5886 196.258 13.9768C196.355 14.0739 196.355 14.0739 196.355 14.268C197.034 14.4621 197.811 14.6562 198.49 14.8504H198.684C198.781 14.6562 198.684 14.6562 198.684 14.4621C199.073 14.268 199.17 13.7827 199.558 13.3944C199.364 13.1033 199.364 13.1033 199.364 12.715C199.946 12.618 200.14 12.3268 200.626 12.2297C200.528 11.9385 200.626 11.8415 200.334 11.7444C200.431 11.6473 200.431 11.6473 200.626 11.7444L200.82 11.5503C200.626 11.4532 200.528 11.2591 200.334 11.162H200.237V11.065C200.528 11.162 200.82 11.162 201.111 11.162C201.111 11.162 201.208 11.162 201.208 11.065C201.111 10.9679 201.111 10.8709 201.014 10.7738V10.6767C201.402 10.8709 201.693 10.8709 202.276 10.9679C202.276 10.8709 202.373 10.6767 202.373 10.5797H202.664C202.567 10.6767 202.47 10.8709 202.373 10.9679C202.373 10.9679 202.373 11.065 202.47 11.065C203.731 11.3562 204.508 10.8709 205.673 10.6767V10.3855C206.546 10.0944 207.711 10.3855 208.682 10.5797C211.982 11.6473 215.088 12.9091 218.194 14.3651C217.805 14.268 217.417 14.0739 217.029 13.9768L216.932 14.0739C216.932 14.1709 217.029 14.268 217.029 14.268C216.738 14.0739 216.544 13.8798 216.155 13.7827V13.8798C216.252 13.9768 216.349 14.0739 216.446 14.1709V14.268C216.155 14.1709 216.252 14.1709 216.058 14.268C215.476 13.7827 214.991 13.1033 214.02 13.0062C214.117 13.1033 214.214 13.2003 214.311 13.2974C214.117 13.2003 214.02 13.2003 213.923 13.1033C213.826 13.2003 213.632 13.2974 213.535 13.4915C213.535 13.4915 213.535 13.5886 213.438 13.5886C214.117 13.7827 214.796 13.9768 215.476 14.0739C215.185 14.3651 214.796 14.268 214.214 14.0739C214.214 14.0739 214.214 14.1709 214.117 14.1709C214.117 14.1709 214.117 14.268 214.214 14.268C215.185 14.4621 215.573 14.7533 216.155 15.0445C216.155 15.0445 216.155 15.1415 216.252 15.1415C216.058 15.0445 215.864 15.0445 215.767 15.0445L215.67 15.1415C215.67 15.2386 215.767 15.3357 215.767 15.3357C217.223 15.7239 220.62 17.374 221.785 16.1122C225.376 17.9563 228.773 19.9946 232.073 22.13C232.073 22.13 231.976 22.13 231.879 22.227C231.879 22.5182 231.879 22.5182 231.976 22.7123C231.782 22.8094 231.685 22.8094 231.491 22.9064C231.685 23.1976 231.976 23.3918 232.073 23.5859C232.073 23.78 232.17 23.9741 232.17 24.1682C232.656 24.8477 233.626 25.2359 234.015 26.1095C234.306 26.2065 234.209 26.1095 234.403 26.0124C234.5 26.2065 234.597 26.4006 234.597 26.6918C234.888 26.983 236.247 27.7595 236.732 27.4683C236.926 27.3713 237.023 26.983 236.926 26.6918C237.023 26.5948 237.121 26.5948 237.218 26.4977C237.218 26.4007 237.121 26.3036 237.121 26.3036V26.1095C238.576 26.7889 239.256 28.6331 240.809 29.2154C240.906 29.4095 241.003 29.6037 241.003 29.7978C240.809 29.8949 240.712 30.089 240.615 30.186C240.906 30.5743 241.197 30.8655 241.682 31.0596C241.585 31.2537 241.585 31.1566 241.294 31.0596V31.1566C241.391 31.3508 241.488 31.4478 241.682 31.5449H241.974V31.1566C241.877 30.9625 241.682 30.6713 241.391 30.5743C241.391 30.3802 241.391 30.5743 241.488 30.3802C241.391 30.2831 241.294 30.089 241.197 29.9919C241.488 30.186 241.682 30.3802 241.779 30.6713H242.459V30.4772C242.265 30.2831 242.168 30.089 242.071 29.9919C242.071 29.8949 242.168 29.8949 242.168 29.8949C242.944 30.5743 243.721 31.2537 244.4 31.9331V32.1273C244.303 32.1273 244.206 32.2243 244.109 32.2243C243.721 32.6126 243.624 32.2243 243.235 32.2243C243.041 32.0302 243.138 32.1273 243.138 31.9331C242.944 31.8361 242.847 31.642 242.653 31.5449V31.8361C242.556 31.8361 242.459 31.8361 242.362 31.739C242.459 32.0302 242.265 31.9331 242.168 32.3214C242.071 32.3214 241.974 32.3214 241.877 32.2243C241.779 32.1273 241.682 31.8361 241.682 31.739C241.585 31.642 241.585 31.642 241.391 31.5449C241.391 31.642 241.488 31.642 241.488 31.739C241.1 31.739 240.712 31.3508 240.421 31.1566C240.324 31.1566 240.421 31.1566 240.421 31.0596C240.324 30.9625 240.227 30.8655 239.935 30.8655V30.7684V30.6713C240.324 30.8655 240.615 31.0596 241.003 31.2537C240.809 30.7684 240.324 30.089 239.741 30.2831C239.644 30.089 239.547 29.7978 239.45 29.5066C239.547 29.6037 239.547 29.6037 239.644 29.6037V29.4095C239.159 28.8272 238.479 28.536 238.188 27.7595C238.091 27.8566 237.994 27.8566 237.897 27.9536C237.897 28.0507 237.994 28.2448 237.994 28.3419H237.8C237.703 28.4389 237.606 28.4389 237.509 28.4389C237.703 29.4095 239.547 30.7684 239.45 31.1566C239.547 31.1566 239.741 31.2537 239.838 31.2537C240.032 31.642 240.324 31.8361 240.518 32.2243C240.324 32.3214 240.421 32.2243 240.421 32.5155C240.129 32.4184 240.032 32.3214 239.644 32.4184V32.7096C239.45 32.7096 239.159 32.8067 238.965 32.8067C238.965 32.9037 238.868 33.0008 238.868 33.0008C238.965 33.0979 238.965 33.1949 239.062 33.3891C239.256 33.4861 239.256 33.4861 239.45 33.3891C239.547 33.6802 239.741 33.7773 239.644 33.9714C239.45 34.1655 239.644 34.0685 239.353 33.9714H239.256C239.353 34.3597 239.256 34.3597 239.45 34.6509C239.353 34.6509 239.159 34.5538 239.062 34.5538C238.868 34.0685 238.673 33.4861 238.576 33.0008C238.576 33.0008 238.479 33.0008 238.479 32.9037C238.674 33.5832 239.256 34.6508 238.771 35.0391C238.479 35.3303 237.994 35.3303 237.703 35.6215C237.897 35.9126 237.994 36.3009 238.091 36.5921C237.897 36.7862 237.8 36.7862 237.509 36.8833C237.412 37.0774 237.218 37.1744 237.509 37.3686C237.509 37.4656 237.412 37.4656 237.315 37.5627C236.635 37.6597 235.956 37.1744 235.47 36.9803L235.373 37.0774C235.665 37.4656 236.053 37.7568 236.247 38.3392C236.344 38.3392 236.344 38.4362 236.441 38.5333V38.6304C236.053 38.5333 235.762 38.5333 235.47 38.7274C235.276 38.5333 235.082 38.4362 234.888 38.2421C234.5 38.4362 234.015 38.3392 233.723 38.6304H233.626C233.723 39.1157 234.015 39.0186 234.306 39.2127C234.209 39.2127 234.112 39.2127 234.015 39.3098C234.597 39.7951 235.373 39.698 236.15 39.9892C236.15 39.9892 238.576 42.3187 238.673 42.4157C238.576 42.3187 238.479 42.3187 238.382 42.2216L238.285 42.3187C238.868 43.1922 239.547 44.454 239.547 46.007C238.673 46.2982 236.538 45.7158 235.373 45.6188C235.082 45.6188 234.306 45.91 233.82 45.8129C233.626 45.7158 233.529 45.5217 233.141 45.6188C232.85 45.5217 232.753 45.9099 232.85 46.1041C232.559 46.2011 232.267 46.2011 232.17 46.3953C232.073 46.3953 231.976 46.4923 231.976 46.4923C231.976 46.9776 232.267 46.9776 232.365 47.3659C232.559 47.3659 232.462 47.3659 232.656 47.2688C232.753 48.1424 233.335 48.8218 233.626 49.5983C233.917 50.3748 233.723 52.5101 233.626 53.2866C233.82 53.4807 234.015 53.6748 234.209 53.869C234.306 53.7719 234.403 53.7719 234.5 53.6748C234.791 54.3543 234.985 55.1308 234.888 56.1984C235.373 56.0043 235.956 56.2955 236.247 56.1984C236.441 56.1014 236.538 55.9072 236.829 55.8102C237.703 55.4219 238.188 57.5573 239.159 57.7514C239.353 57.5573 240.129 56.8779 240.129 56.6837C240.809 56.6837 241.294 56.5867 241.877 56.7808C241.877 56.6837 241.974 56.5867 241.974 56.5867C242.265 56.5867 242.265 56.6837 242.459 56.7808C242.653 56.3926 242.75 55.8102 242.847 55.519C243.041 55.4219 243.138 55.4219 243.429 55.4219C243.429 55.1308 243.235 54.6455 243.429 54.1602C243.527 53.869 243.721 53.869 243.818 53.4807C242.265 52.413 243.624 51.0542 243.235 50.1806C243.527 49.7924 243.818 49.8895 244.206 49.5983C244.4 49.4041 244.691 48.9188 244.885 48.7247C244.788 48.1424 243.915 47.3659 244.109 46.6864C244.206 46.4923 244.4 46.3953 244.497 46.2011C245.274 46.4923 245.759 46.7835 246.438 47.0747C246.73 46.7835 246.73 46.2011 247.312 46.007C247.312 45.8129 247.409 45.5217 247.506 45.3276V45.2305C248.865 45.4246 249.738 47.3659 250.418 48.3365C250.418 48.3365 252.359 50.1806 252.456 50.2777C252.553 50.2777 252.747 50.1806 252.942 50.3748C253.039 50.5689 253.136 50.763 253.33 50.9571C254.786 52.316 255.271 52.8013 255.95 54.9366C255.756 55.0337 255.465 55.0337 255.368 55.3249C254.883 55.3249 254.883 55.2278 254.494 55.0337C254.397 55.1308 254.397 55.1308 254.397 55.3249C254.3 55.2278 254.3 55.2278 254.203 55.1308H254.106C254.106 55.3249 254.009 55.6161 254.203 55.8102C254.3 56.0043 256.145 57.4602 256.436 57.5573H256.533C256.436 56.7808 256.047 56.3926 256.047 55.4219C256.145 55.519 256.242 55.6161 256.339 55.6161C256.436 55.2278 256.339 54.7425 256.242 54.3543C256.242 54.0631 256.242 54.1602 256.436 54.0631C256.242 53.3837 255.95 53.2866 255.659 52.8984C255.562 52.5101 255.465 52.1219 255.368 51.7336L255.465 51.6366C255.659 51.9277 256.242 52.6072 256.63 52.8013C256.339 51.6366 255.271 50.6659 254.3 50.2777C254.203 50.0836 254.106 49.8895 254.203 49.5983C253.912 49.4041 253.621 49.5983 253.33 49.3071C252.553 48.7247 252.262 47.7541 251.68 46.9776C251.194 46.2982 250.224 46.1041 249.933 45.1335C249.933 45.0364 250.03 44.9393 250.03 44.7452C249.933 44.454 249.641 44.357 249.544 44.0658C249.836 43.9687 249.836 43.9687 249.933 43.7746H250.127C250.321 44.0658 250.709 44.7452 250.806 45.0364C250.806 45.0364 250.903 45.0364 250.903 45.1335C250.903 45.0364 250.903 44.8423 251 44.7452C251.097 44.9393 251.194 45.1335 251.291 45.3276C251.389 45.3276 251.389 45.4246 251.486 45.4246C251.389 45.2305 251.389 45.1335 251.291 44.9393C251.777 45.1335 251.971 45.9099 252.165 46.2011C252.553 46.6864 253.136 46.8806 253.427 47.2688C253.33 47.2688 253.33 47.2688 253.233 47.1717C253.33 47.4629 253.427 47.4629 253.621 47.657H253.912C253.815 47.56 253.718 47.4629 253.621 47.4629H253.718C253.815 47.56 253.912 47.657 254.009 47.657V47.7541C253.912 47.7541 253.815 47.8512 253.718 47.8512C253.912 48.0453 253.912 47.8512 254.203 48.0453C254.786 48.3365 255.659 49.3071 256.047 49.7924C256.339 50.5689 256.63 51.3454 256.921 52.0248C257.309 52.7042 258.086 53.3837 258.377 54.0631H258.571C258.571 54.1602 258.474 54.3543 258.571 54.5484C258.765 54.7425 259.056 55.0337 259.348 55.1308C259.25 55.4219 259.25 55.3249 259.25 55.7131C259.639 56.1984 259.93 56.6837 260.124 57.3632C260.221 57.3632 260.221 57.4602 260.318 57.4602H260.415C260.415 57.3632 260.318 57.169 260.318 57.072H260.415C260.512 57.3632 260.609 57.5573 260.803 57.8485C260.803 57.8485 260.901 57.8485 260.901 57.9455C260.901 57.8485 260.803 57.6544 260.803 57.5573C260.901 57.6544 260.998 57.8485 261.095 57.9455H261.192C260.901 57.4602 260.706 56.8779 260.415 56.2955C260.512 56.3926 260.512 56.4896 260.609 56.4896C260.609 56.4896 260.706 56.4896 260.706 56.5867V56.4896C260.803 56.1984 260.415 55.9073 260.318 55.7131H260.415C260.512 55.8102 260.609 55.9073 260.803 56.1014C260.706 55.9073 260.609 55.7131 260.512 55.4219C260.706 55.6161 260.901 55.8102 261.095 56.0043C260.803 55.4219 260.124 54.2572 259.542 53.966C259.639 53.7719 259.542 53.869 259.736 53.869C259.542 53.1895 258.571 52.6072 258.474 51.6366H258.571C258.668 52.2189 259.056 52.0248 259.25 52.316H259.348C259.153 52.0248 258.959 51.7336 258.765 51.4424C258.862 51.3454 258.959 51.2483 259.056 51.2483C259.348 51.0542 259.445 51.6366 259.833 51.6366C259.833 51.8307 259.93 51.9277 259.93 52.1219C260.027 51.5395 259.93 50.6659 259.833 50.4718C259.542 50.1806 259.348 49.6953 259.153 49.3071C258.668 48.6277 258.377 47.9482 257.989 47.2688C260.512 50.763 262.842 54.2572 264.783 57.8485C250.321 23.8771 216.641 0 177.428 0C138.215 0 104.535 23.78 90.0728 57.7514C94.5376 48.8218 101.429 39.601 110.359 31.2537ZM253.427 47.56C253.33 47.3659 253.427 47.4629 253.33 47.3659V47.56H253.427ZM145.107 166.169C145.107 166.169 145.106 166.266 145.009 166.266H145.107V166.169ZM259.25 51.7336C259.25 51.5395 259.348 51.6366 259.153 51.5395C259.153 51.5395 259.25 51.6366 259.25 51.7336ZM259.348 52.413C259.445 52.5101 259.445 52.5101 259.542 52.6072V52.413C259.445 52.413 259.348 52.316 259.348 52.316V52.413ZM258.668 51.3454C258.765 51.3454 258.765 51.4424 258.862 51.4424C258.765 51.2483 258.862 51.2483 258.668 51.1513V51.3454ZM260.124 54.1602C260.027 54.0631 260.027 53.966 259.93 53.869V54.0631C259.93 54.0631 260.027 54.1602 260.124 54.1602ZM157.045 177.428C157.045 177.428 157.045 177.331 157.142 177.331C156.948 177.331 156.657 177.234 156.463 177.234C156.463 177.428 156.754 177.428 157.045 177.428ZM184.125 146.562H184.416C184.319 146.465 184.319 146.465 184.222 146.368C184.222 146.368 184.125 146.465 184.028 146.465L184.125 146.562ZM144.524 165.586H144.718C144.621 165.489 144.621 165.489 144.524 165.392V165.586ZM155.007 177.719C154.813 177.525 154.716 177.428 154.424 177.331C154.618 177.622 154.716 177.719 155.007 177.719ZM184.707 146.368H184.61V146.465L184.707 146.368ZM250.03 47.4629H249.933V47.657H250.224C250.127 47.56 250.127 47.56 250.03 47.4629ZM250.03 49.5012L250.127 49.5983C250.127 48.8218 249.738 47.4629 249.253 47.1717C249.35 47.2688 249.35 47.4629 249.447 47.56C249.35 47.657 249.253 47.6571 249.156 47.7541C249.156 48.4335 249.641 49.3071 250.03 49.5012ZM187.619 146.854C187.522 146.077 188.59 146.368 189.172 146.077C189.561 145.786 189.561 144.815 190.24 144.524C191.211 144.039 191.211 143.748 191.89 143.262C192.181 143.068 192.472 143.068 192.666 142.777C193.346 141.612 192.861 141.127 194.317 140.642C194.511 139.865 194.705 139.283 195.19 138.7C195.384 138.409 195.675 138.215 195.87 137.924C196.161 137.245 195.967 136.662 196.258 135.983C196.549 135.303 197.131 134.818 197.228 133.944C197.908 133.653 198.393 133.75 199.073 133.265C199.946 132.489 200.82 131.712 201.693 130.936C201.984 130.838 202.276 130.839 202.664 130.741C203.052 130.45 203.44 130.159 203.829 129.771C205.284 128.8 206.449 128.024 207.032 126.18C207.032 125.791 207.032 125.5 207.129 125.112C207.323 124.432 208.099 120.162 208.002 120.162C167.722 120.065 137.924 120.55 137.924 120.55C138.506 121.618 139.089 122.977 139.962 123.85C141.612 125.597 144.427 126.471 145.495 128.703C145.98 129.188 146.465 129.674 147.048 130.159C147.048 130.45 146.951 130.644 146.951 130.838C147.048 131.518 147.339 132.489 147.242 133.265C147.242 133.556 147.048 134.042 147.145 134.43C147.242 134.624 147.242 134.915 147.339 135.109C147.242 135.789 146.951 136.565 146.951 137.439C146.757 137.536 146.854 137.439 146.562 137.439V138.215H146.854C146.757 138.7 146.757 139.186 146.659 139.574C146.757 140.059 146.757 140.545 146.854 140.933C146.757 141.127 146.465 141.224 146.465 141.515C146.465 141.709 146.562 141.903 146.562 142.001C146.465 142.971 146.271 143.748 145.98 144.33C145.689 144.912 145.98 145.495 145.495 145.786C145.592 146.562 145.786 146.951 145.786 147.727C145.592 147.824 145.689 147.824 145.398 147.824C145.301 149.571 146.174 150.542 145.592 151.804C145.689 151.804 145.883 152.386 145.786 152.58C145.398 153.745 144.815 154.813 144.718 156.171C144.621 156.171 144.621 156.074 144.524 156.074V156.754C144.33 156.657 144.233 156.657 144.039 156.56L143.942 156.657C144.039 157.627 144.524 158.695 144.912 159.472C144.912 160.539 144.233 160.927 145.009 162.189V162.383C144.912 162.286 144.815 162.286 144.718 162.189C144.524 162.675 144.815 163.257 144.718 163.839C144.912 164.033 145.107 164.13 145.398 164.228C145.398 164.228 145.495 164.228 145.592 164.13C145.689 163.548 145.689 162.869 145.398 162.48L145.495 162.383C145.592 162.48 145.786 162.48 145.883 162.578H145.98C145.98 162.383 146.077 162.383 145.883 162.383C145.883 162.286 145.98 162.286 145.98 162.189L146.271 162.48C146.174 162.577 146.174 162.578 146.077 162.675C146.368 162.869 146.465 163.451 146.174 163.548C146.271 163.645 146.368 163.742 146.465 163.742C146.271 164.616 146.465 165.295 146.465 166.169H146.368C146.271 165.878 146.077 165.101 146.174 165.004C145.98 164.713 145.786 164.519 145.398 164.422C145.204 164.616 145.107 165.004 145.107 165.392L145.495 165.781C145.495 166.072 145.495 166.266 145.398 166.557H145.009C145.106 166.654 145.107 166.751 145.204 166.848C145.107 166.945 144.912 167.042 144.815 167.139V167.333C144.912 167.431 145.107 167.431 145.204 167.528L145.398 167.333C145.592 167.528 146.077 167.625 146.368 167.819C146.271 167.819 146.271 167.819 146.174 167.722C146.271 167.916 146.271 167.819 146.368 167.916C146.271 168.11 146.271 168.304 146.174 168.401C145.98 168.304 145.98 168.207 145.689 168.207V168.304L145.883 168.498C145.786 168.595 145.689 168.595 145.592 168.692C145.883 169.178 145.98 169.954 146.271 170.439C146.562 170.537 146.757 170.731 146.951 170.828C146.854 170.731 146.659 170.731 146.562 170.731V170.828C146.659 171.022 146.659 171.216 146.757 171.41C146.854 171.41 146.951 171.507 147.048 171.507C147.145 171.313 147.145 171.216 147.242 171.022C147.339 171.119 147.339 171.313 147.436 171.41H147.242V171.507C147.436 171.798 147.533 171.992 147.533 172.381C147.727 172.284 147.921 172.284 148.115 172.187C148.212 172.284 148.212 172.284 148.407 172.381L148.31 172.575C148.115 172.478 147.921 172.478 147.824 172.381V172.478C148.018 172.769 148.31 173.06 148.601 173.254C148.601 173.157 148.504 173.06 148.504 173.06C148.795 173.351 149.086 173.545 149.377 173.837V173.934C149.086 173.837 148.795 173.74 148.504 173.545C148.892 174.031 149.183 174.128 149.571 174.225C149.571 174.322 149.571 174.225 149.474 174.419C149.863 174.807 151.513 175.972 151.998 175.778C151.998 175.972 151.998 175.875 151.901 175.972C152.386 176.457 153.939 177.04 154.716 177.234V177.137C154.618 177.04 154.424 176.846 154.327 176.748C154.716 176.846 155.007 176.845 155.298 176.943C155.298 177.137 155.298 177.04 155.492 177.04L155.395 176.943C155.492 176.943 155.589 177.04 155.686 177.137V176.943C155.88 176.943 156.171 177.04 156.366 177.04H156.463C156.463 177.04 156.463 176.943 156.56 176.943V176.748C155.104 176.554 154.716 175.293 153.551 175.001L153.745 174.807C153.454 174.419 152.968 174.516 152.677 174.128C152.677 174.128 152.58 174.128 152.58 174.031C152.677 174.031 152.677 173.934 152.774 173.934C153.066 174.031 153.26 174.128 153.551 174.225C153.163 173.74 152.483 173.351 152.386 172.478C152.386 172.478 152.386 172.381 152.483 172.381C152.677 172.284 152.968 172.284 153.163 172.187C153.357 171.992 153.26 171.701 153.26 171.313C153.551 171.119 154.327 170.925 154.521 170.634C154.618 170.537 154.618 170.148 154.521 169.857C153.648 169.275 152.386 169.081 152.677 167.916C153.066 167.625 153.648 167.528 154.133 167.722H154.327C154.23 167.528 154.327 167.625 154.133 167.528C154.23 167.334 154.327 167.333 154.521 167.236C154.521 166.945 154.424 166.654 154.327 166.363C154.521 166.072 154.716 165.878 155.298 165.878C155.201 165.586 154.813 165.586 154.716 165.392C154.716 165.392 154.618 165.392 154.618 165.295C154.716 165.198 154.813 165.198 155.007 165.101C155.298 165.295 155.395 165.392 155.492 165.683C155.589 165.683 155.783 165.683 155.88 165.781C155.88 165.683 155.977 165.683 156.074 165.586C156.074 165.295 156.074 165.101 155.88 165.004C155.88 165.004 155.783 164.907 155.783 164.81C155.589 164.81 155.395 164.81 155.201 164.907C155.298 165.004 155.395 165.004 155.492 165.101V165.198C155.395 165.198 155.298 165.101 155.104 165.101C154.91 165.004 154.91 164.81 154.618 164.713C154.424 164.422 154.424 163.742 154.327 163.354C154.716 162.869 155.589 163.839 156.171 164.033C156.56 164.033 156.948 164.033 157.433 163.936C157.53 163.742 157.627 163.548 157.724 163.354C157.627 163.354 157.627 163.451 157.53 163.451C157.433 163.354 157.336 163.354 157.336 163.257C157.627 162.869 157.919 162.48 157.724 161.995C157.822 161.995 157.919 162.092 157.919 162.092H158.016C158.016 161.995 157.919 161.898 157.919 161.801C158.695 162.092 161.995 162.578 162.869 162.092C163.063 161.995 163.839 161.025 164.131 160.83V160.054C163.645 159.86 163.451 159.86 163.451 159.277L163.839 158.889C163.645 158.016 162.675 157.822 162.286 157.142C162.383 157.045 162.48 156.948 162.48 156.851C162.578 156.851 162.578 156.851 162.675 156.754C162.772 156.948 162.966 157.045 163.063 157.336C163.354 157.433 163.742 157.433 164.033 157.53C164.325 157.724 164.713 158.307 165.101 158.404C165.392 158.501 165.683 158.307 165.975 158.404C166.266 158.501 166.363 158.792 166.848 158.792C167.916 158.695 168.11 158.21 168.692 157.724C169.081 157.53 169.372 157.433 169.76 157.239C170.051 156.851 170.342 156.56 170.537 156.171C171.216 155.88 171.895 155.589 172.575 155.298C173.351 154.716 173.837 153.745 174.613 153.163C175.584 152.386 176.748 152.289 177.137 150.93H176.943C177.137 150.445 177.137 149.765 177.428 148.989C177.622 148.407 181.31 146.562 182.281 146.854C182.475 147.048 182.669 147.145 182.863 147.339C182.863 147.242 182.96 147.145 182.96 146.951C182.863 146.951 182.863 146.951 182.766 146.854V146.757C183.252 146.659 183.737 145.98 184.125 146.077C184.319 145.883 184.319 145.98 184.125 145.786V145.592C185.096 145.592 186.94 145.98 187.91 146.368C187.425 146.854 187.425 146.854 187.619 146.854ZM251.777 53.1895C251.583 52.0248 251.097 50.763 250.418 49.8895C250.418 49.8895 250.321 49.7924 250.224 49.7924C250.224 49.9865 250.127 50.0836 250.127 50.2777C249.933 50.3748 250.03 50.3748 249.738 50.2777C249.738 50.8601 250.418 51.4424 250.612 51.9277C250.806 52.316 250.709 52.8013 250.806 53.0925C251 53.1895 251.097 53.3837 251.486 53.4807C251.486 53.3837 251.486 53.1895 251.389 53.0925C251.486 53.0925 251.583 53.0925 251.777 53.1895ZM220.329 96.2847L214.117 96.0906L214.214 111.912C214.214 112.106 214.117 112.203 214.02 112.3C213.923 112.397 213.729 112.494 213.632 112.494L204.12 112.203C203.829 112.203 203.537 111.912 203.537 111.62L203.343 68.0399C203.343 67.8458 203.44 67.7487 203.537 67.6517C203.634 67.5546 203.829 67.4575 203.926 67.4575L227.803 68.137C235.762 68.4281 240.324 73.4753 240.324 82.0167C240.324 90.2669 235.956 93.7611 231.879 95.12L241.974 112.397C242.071 112.591 242.071 112.785 241.974 112.979C241.877 113.173 241.682 113.27 241.488 113.27L230.229 112.882C230.035 112.882 229.841 112.785 229.744 112.591L220.329 96.2847ZM221.785 86.7727H222.755C225.57 86.7727 227.22 86.3845 228.191 85.4139C228.87 84.7344 229.259 83.5697 229.259 81.7255C229.259 79.6872 228.87 77.746 224.114 77.649L214.02 77.3578V86.4815L221.785 86.7727ZM171.41 8.15314V8.34727H171.798C171.604 8.2502 171.507 8.2502 171.41 8.15314ZM170.828 8.83257C171.022 8.83257 171.119 8.83257 171.313 8.92963V8.83257V8.63845C171.022 8.54139 170.731 8.44433 170.439 8.44433C170.439 8.44433 170.439 8.54139 170.342 8.54139C170.537 8.63845 170.634 8.73551 170.828 8.83257ZM175.972 6.30898C176.069 6.21192 176.166 6.11486 176.263 6.0178V5.82367C175.778 5.72661 175.39 5.53249 174.71 5.53249C174.516 5.62955 174.225 5.72661 174.031 5.72661C174.031 5.82367 174.031 5.92073 173.934 6.0178V6.11486C174.322 6.30898 175.487 6.60016 175.972 6.30898ZM168.401 9.02669C168.207 9.12376 168.013 9.12375 167.916 9.22081C167.916 9.31787 167.819 9.31788 167.819 9.41494C167.916 9.512 167.916 9.60906 168.013 9.70612C168.401 9.80318 168.595 9.512 168.984 9.41494C169.081 9.31788 169.081 9.31787 169.178 9.22081C168.789 9.12375 168.692 9.02669 168.401 9.02669ZM168.984 10.5797C168.887 10.4826 168.692 10.4826 168.595 10.4826L168.692 10.5797H168.984ZM164.616 8.34727V8.73551C165.392 8.63845 166.169 8.73551 166.848 8.54139C166.848 8.54139 166.848 8.44433 166.945 8.44433C166.46 8.34726 165.975 8.2502 165.489 8.2502C165.198 8.2502 164.907 8.2502 164.616 8.34727ZM183.057 12.5209C182.96 12.4238 182.96 12.4238 182.766 12.3268C182.863 12.4238 182.863 12.4238 183.057 12.5209ZM179.466 12.9091L179.369 13.0062C179.563 13.1033 179.854 13.1033 180.146 13.1033C180.146 13.1033 180.146 13.0062 180.243 13.0062C180.146 13.0062 180.049 12.9091 179.951 12.8121C179.854 12.8121 179.757 12.8121 179.66 12.715C179.563 12.8121 179.563 12.9091 179.466 12.9091ZM172.09 8.92963H172.284C172.284 8.92963 172.284 8.83257 172.381 8.83257C172.284 8.73551 172.284 8.73551 172.187 8.63845C171.992 8.63845 171.798 8.54139 171.701 8.54139C171.701 8.73551 171.895 8.83257 172.09 8.92963ZM194.608 30.9625H194.414C194.317 30.9625 194.219 31.0596 194.219 31.0596C194.219 31.1566 194.219 31.1566 194.122 31.2537H194.317C194.414 31.2537 194.511 31.1566 194.608 31.1566V30.9625ZM176.457 9.41494C176.36 9.31788 176.36 9.31788 176.263 9.31788V9.41494H176.457ZM178.01 12.0356H177.913V12.1326C178.01 12.1326 178.01 12.0356 178.01 12.0356ZM266.627 85.8992C264.88 85.2197 263.23 84.4432 261.968 83.7638C259.833 82.5991 258.765 81.5314 258.765 80.4637C258.765 80.1726 258.862 79.6872 259.348 79.2019C259.833 78.7166 260.998 78.0372 263.327 78.2313C269.83 78.6196 276.916 82.8903 278.954 84.2491C279.148 84.3462 279.342 84.3462 279.536 84.2491C279.73 84.1521 279.827 83.9579 279.827 83.7638L279.73 74.0577C279.73 73.8636 279.633 73.6695 279.439 73.5724C276.139 71.6312 269.151 68.6223 263.327 68.3311C258.377 68.0399 253.912 69.4958 251.097 72.3106C248.962 74.4459 247.894 77.3578 247.894 80.7549C247.894 91.0434 257.212 94.8288 264.006 97.6436C265.657 98.323 267.112 98.9054 268.374 99.5848C270.51 100.652 271.577 101.623 271.577 102.594C271.577 103.467 271.383 104.05 270.801 104.535C269.733 105.603 267.695 105.991 264.589 105.894C261.289 105.7 255.465 103.079 249.35 99.0024C249.156 98.9054 248.962 98.9054 248.768 99.0024C248.574 99.0995 248.477 99.2936 248.477 99.4877L248.574 109.582C248.574 109.776 248.671 109.97 248.865 110.067C250.806 111.329 257.892 115.6 264.589 115.891C265.171 115.891 265.851 115.988 266.433 115.988C271.965 115.988 276.236 114.532 278.954 111.815C281.38 109.388 282.545 106.088 282.545 102.011C282.448 92.4993 273.324 88.7139 266.627 85.8992ZM176.943 183.737C135.206 183.737 99.6819 158.889 86.5786 124.238C99.0995 161.413 130.353 190.337 176.846 190.337C220.717 190.337 255.271 161.025 267.598 123.462C254.786 158.501 219.067 183.737 176.943 183.737ZM326.417 117.832C326.514 118.026 326.514 118.221 326.32 118.318C326.223 118.512 326.029 118.512 325.834 118.512L316.42 117.832C316.225 117.832 316.031 117.638 315.934 117.444L312.731 108.709L297.493 107.544L294.29 115.794C294.193 115.988 293.998 116.182 293.707 116.182L285.845 115.6C285.651 115.6 285.457 115.503 285.36 115.309C285.263 115.115 285.263 114.92 285.36 114.823L302.249 72.1165C302.346 71.9223 302.54 71.7282 302.831 71.7282L309.431 72.2135C309.625 72.2135 309.819 72.4077 309.916 72.6018L326.417 117.832ZM309.14 98.8083L305.257 88.1316L301.278 98.2259L309.14 98.8083ZM360 112.494C360 112.203 359.806 111.912 359.515 111.912L341.073 110.262L340.879 75.3195C340.879 75.0283 340.685 74.7371 340.394 74.7371L332.24 73.9606C332.046 73.9606 331.949 73.9606 331.755 74.1548C331.658 74.2518 331.561 74.4459 331.561 74.543L331.852 118.609C331.852 118.9 332.046 119.191 332.338 119.191L359.321 121.715H359.418C359.515 121.715 359.709 121.715 359.806 121.521C359.903 121.424 360 121.229 360 121.132V112.494ZM159.763 16.6945C159.957 16.9857 160.733 17.2769 161.025 17.374C161.122 17.1798 161.025 17.0828 161.025 16.8887C160.733 16.6945 160.345 16.6945 159.957 16.5975C159.957 16.5975 159.86 16.5975 159.763 16.6945ZM78.5225 70.1752C78.4255 70.0782 78.2313 69.9811 78.1343 69.9811L71.0488 70.4664C70.7576 70.4664 70.5635 70.7576 70.5635 71.0488L70.6606 96.673L51.9277 72.1165C51.8307 71.9223 51.6366 71.9223 51.4424 71.9223L42.6099 72.5047C42.3187 72.5047 42.1246 72.7959 42.1246 73.0871L42.3187 116.668C42.3187 116.862 42.4157 116.959 42.5128 117.056C42.6099 117.153 42.804 117.25 42.9011 117.25L49.9865 116.765C50.2777 116.765 50.4718 116.473 50.4718 116.182L50.3748 88.4228L70.4664 115.115C70.5635 115.212 70.7576 115.309 70.9517 115.309L78.2313 114.823C78.5225 114.823 78.7166 114.532 78.7166 114.241L78.5225 70.6606C78.7166 70.4664 78.6196 70.3694 78.5225 70.1752ZM180.34 24.5565C181.504 25.333 182.378 25.9153 183.931 26.4007H184.028V26.2065C183.252 25.5271 181.796 24.5565 180.437 24.4594C180.34 24.4594 180.34 24.5565 180.34 24.5565ZM181.116 29.5066C181.213 29.7007 181.31 29.7007 181.504 29.7978C181.99 29.7007 181.893 29.4095 182.572 29.5066L182.669 29.4095V29.3125C182.281 29.2154 180.146 28.7301 180.146 28.7301C179.951 28.6331 180.049 28.7301 179.951 28.4389C179.66 28.2448 179.854 28.3419 179.854 27.9536C179.757 27.9536 179.757 27.9536 179.66 27.8566C179.466 27.9536 179.272 28.0507 179.078 28.1477C179.078 28.1477 179.078 28.2448 178.981 28.2448C179.563 28.7301 180.049 29.0213 180.825 29.3125C181.213 29.5066 181.019 29.4095 181.116 29.5066ZM33.6802 73.4753C33.5832 73.3783 33.3891 73.2812 33.1949 73.3783L24.9447 74.1548C24.6535 74.1548 24.4594 74.4459 24.4594 74.7371L24.5565 100.847C24.5565 107.156 22.0329 110.553 16.9857 111.038C16.5975 111.135 16.3063 111.135 15.918 111.135C11.6473 111.135 9.41494 108.223 9.41494 102.497L9.31788 76.3872C9.31788 76.193 9.22081 76.096 9.12375 75.9989C9.02669 75.9019 8.83257 75.8048 8.73551 75.8048L0.485306 76.5813C0.194122 76.5813 0 76.8725 0 77.1637L0.0970616 103.564C0.194123 115.018 5.14424 121.132 14.6562 121.132C15.4327 121.132 16.2092 121.132 17.0828 121.035C31.8361 119.579 33.9714 107.544 33.9714 100.458L33.8744 74.0577C33.8744 73.7665 33.8744 73.5724 33.6802 73.4753ZM168.789 31.9331H168.692V32.0302C168.692 32.0302 168.789 32.0302 168.789 31.9331ZM88.9081 114.144C89.0051 114.241 89.1992 114.338 89.2963 114.338L98.7112 113.853C99.0024 113.853 99.2936 113.562 99.2936 113.27L99.0995 69.787C99.0995 69.5929 99.0024 69.4958 98.9054 69.3988C98.8083 69.3017 98.6142 69.2046 98.5171 69.2046L89.0051 69.6899C88.7139 69.6899 88.5198 69.9811 88.5198 70.2723L88.811 113.756C88.7139 113.853 88.811 113.95 88.9081 114.144ZM174.516 9.99731C174.419 9.90025 174.128 9.80318 173.934 9.80318C174.031 9.99731 174.128 9.99731 174.322 9.99731H174.516ZM227.706 29.2154L227.609 29.3125C227.609 29.3125 227.706 29.3125 227.706 29.4095L227.803 29.3125C227.706 29.3125 227.706 29.3125 227.706 29.2154ZM227.026 28.7301V28.536H226.929H226.832V28.6331C226.929 28.7301 227.026 28.7301 227.026 28.7301ZM227.997 29.8949C228.191 29.7978 228.191 29.4095 227.997 29.2154C227.9 29.4095 227.803 29.5066 227.609 29.6037C227.706 29.7978 227.803 29.7978 227.997 29.8949ZM227.123 28.2448C227.026 28.2448 226.929 28.1477 226.929 28.1477C226.929 28.2448 227.026 28.2448 227.123 28.2448C227.026 28.3419 227.026 28.2448 227.123 28.2448ZM226.735 28.7301V28.9242H226.832C226.832 28.7301 226.929 28.8272 226.735 28.7301ZM230.326 31.5449C230.326 31.5449 230.326 31.6419 230.423 31.6419C230.52 31.6419 230.617 31.642 230.714 31.5449C230.714 31.4478 230.714 31.4478 230.812 31.3508C230.714 31.2537 230.617 31.1566 230.52 31.0596C230.423 31.3508 230.423 31.4478 230.326 31.5449ZM191.016 30.7684C191.016 30.8655 191.114 30.8655 191.114 30.9625C191.114 30.8655 191.211 30.8655 191.211 30.8655C191.211 30.8655 191.114 30.7684 191.016 30.7684ZM191.016 31.0596C191.114 31.0596 191.114 31.0596 191.211 31.1566C191.211 31.1566 191.308 31.1566 191.308 31.0596C191.211 31.0596 191.211 30.9625 191.114 30.9625L191.016 31.0596ZM226.541 27.3713C226.444 27.5654 226.444 27.4683 226.347 27.6624C226.638 27.9536 227.22 28.1477 227.511 28.1477C227.511 28.2448 227.609 28.2448 227.609 28.3419C227.511 28.4389 227.414 28.4389 227.317 28.536C227.414 28.8272 227.511 28.8272 227.511 29.1184C227.706 29.1184 227.9 29.0213 227.997 29.0213C227.997 28.9242 227.997 28.8272 228.094 28.7301V28.6331H228.191C228.288 29.2154 228.579 29.6037 228.773 30.186H228.967C228.967 30.186 228.967 30.089 229.064 30.089C229.064 29.9919 228.967 29.8949 228.967 29.7978C229.064 29.8949 229.161 29.8949 229.259 29.9919C229.161 29.7978 229.161 29.6037 229.064 29.5066C229.259 29.6037 229.356 29.7007 229.453 29.7978C229.55 29.9919 229.55 30.2831 229.453 30.5743C229.647 30.6713 229.744 30.8655 229.938 30.9625H230.035C229.938 30.8655 229.938 30.8655 229.938 30.7684C230.132 30.8655 230.229 30.8655 230.423 30.9625V30.7684C230.812 30.8655 230.909 30.8655 231.2 30.5743C231.588 30.9625 231.394 31.739 232.267 31.5449C232.267 31.9331 232.365 32.1273 232.559 32.4184C232.17 32.7096 231.782 32.5155 231.297 32.4184C231.394 32.7096 231.491 32.7096 231.685 32.9037C231.588 33.0008 231.491 33.0979 231.491 33.1949C231.491 33.1949 231.491 33.292 231.588 33.292C231.685 33.1949 231.879 33.1949 231.976 33.0979C232.17 33.292 232.267 33.4861 232.365 33.6802C232.267 33.9714 232.073 34.1655 231.685 34.1655C231.588 34.2626 231.588 34.2626 231.491 34.3597C231.685 34.5538 231.879 34.6508 232.073 34.845C232.656 34.5538 233.141 34.942 233.723 35.1362C233.82 35.0391 234.015 34.942 234.112 34.942C234.015 35.1362 234.015 35.1362 234.015 35.3303H232.947C232.947 35.8156 232.656 36.3009 232.267 36.6891V36.7862C232.559 36.7862 232.559 36.7862 232.85 36.8833C232.947 36.6891 232.947 36.495 233.335 36.3979C233.626 36.3009 233.918 36.495 234.209 36.5921C234.209 36.398 234.209 36.1068 234.306 36.0097C234.306 36.0097 235.956 36.1068 236.053 36.2038H236.247C236.247 36.1068 236.15 36.0097 236.15 35.9126C236.926 35.9126 237.315 35.9126 237.994 35.6215C237.994 35.6215 237.994 35.5244 238.091 35.5244C238.091 35.4273 237.994 35.3303 237.994 35.2332C237.703 35.2332 237.509 35.2332 237.315 35.1362C237.412 34.942 237.703 34.5538 237.606 34.2626C237.509 33.7773 236.538 32.7096 235.956 33.3891C235.956 33.3891 235.859 33.3891 235.762 33.292C235.47 32.6126 234.985 31.8361 234.112 31.3508C233.82 31.2537 233.432 31.0596 233.141 30.9625C232.267 30.186 231.879 29.5066 230.617 29.5066C230.714 29.4095 230.909 29.3125 231.006 29.2154C230.909 29.1184 230.812 29.0213 230.714 29.0213C230.909 28.6331 230.714 28.2448 230.714 27.8566C230.229 27.3713 229.356 27.4683 228.773 27.6624C228.773 27.3713 228.87 27.4683 228.579 27.3713C228.676 27.1771 228.773 26.983 228.967 26.886C228.967 26.7889 228.87 26.6918 228.87 26.4977C228.288 26.4007 227.803 26.5948 227.317 26.4977C227.22 26.5948 227.22 26.6918 227.317 26.886C227.22 27.0801 227.22 27.0801 227.414 27.3713C227.414 27.3713 227.317 27.3713 227.317 27.4683C227.123 27.4683 227.22 27.3713 227.123 27.5654C227.22 27.7595 227.317 27.9536 227.414 28.0507C226.929 27.7595 226.735 27.5654 226.541 27.3713ZM156.851 39.4068H157.045L156.948 39.3098C156.948 39.3098 156.948 39.4068 156.851 39.4068ZM191.308 31.1566V31.2537L191.405 31.1566H191.308ZM187.037 18.5387C187.134 18.5387 187.134 18.4416 187.134 18.4416C187.037 18.4416 186.94 18.4416 186.843 18.3446C186.94 18.5387 186.843 18.3446 187.037 18.5387ZM225.861 26.4977C225.764 26.5948 225.57 26.7889 225.473 26.886C225.667 27.0801 225.764 27.1771 225.764 27.2742C225.861 27.2742 225.861 27.3713 225.958 27.3713C226.056 27.2742 226.25 27.1771 226.347 27.0801C226.347 26.886 226.25 26.6918 226.25 26.5948C226.056 26.5948 225.958 26.4977 225.861 26.4977ZM242.847 30.8655C242.847 30.9625 242.944 31.0596 242.944 31.1566C243.041 31.2537 243.235 31.2537 243.332 31.2537C243.138 30.9625 243.041 30.9625 242.847 30.8655ZM183.252 12.618C183.349 12.8121 183.64 13.0062 183.931 13.1033C184.028 13.0062 184.125 13.0062 184.222 12.9091C184.222 12.8121 184.125 12.715 184.028 12.618C183.834 12.5209 183.737 12.5209 183.64 12.5209C183.543 12.618 183.543 12.618 183.252 12.618ZM184.707 7.66784C184.61 7.57078 184.707 7.57078 184.707 7.66784C184.61 7.57078 184.61 7.66784 184.61 7.66784H184.707ZM239.159 28.4389C239.062 28.2448 239.159 28.3419 238.965 28.2448C239.062 28.3419 239.159 28.4389 239.159 28.4389ZM189.658 20.9652C189.755 20.9652 189.755 20.9652 189.658 20.9652C189.658 20.8682 189.561 20.8682 189.561 20.7711C189.658 20.8682 189.658 20.8682 189.658 20.9652ZM225.958 28.2448V28.3419C225.958 28.3419 226.056 28.3419 226.153 28.2448V28.1477L225.958 28.2448ZM239.353 33.5832V33.6802H239.45C239.45 33.5832 239.45 33.6802 239.353 33.5832ZM225.958 27.4683C225.861 27.4683 225.861 27.3713 225.764 27.3713C225.667 27.3713 225.57 27.4683 225.57 27.4683C225.764 27.6624 225.861 27.8566 226.056 28.0507H226.25C226.056 27.9536 225.958 27.7595 225.958 27.4683ZM225.473 31.8361C225.376 31.8361 225.376 31.8361 225.279 31.9331C225.473 32.1273 225.667 32.1273 225.958 32.1273C225.764 32.3214 225.764 32.3214 225.57 32.5155C225.958 33.0979 226.347 32.7096 226.929 32.9037C226.541 33.0979 226.638 33.1949 226.638 33.4861C226.444 33.6802 226.444 33.5832 226.638 33.7773C226.541 33.9714 226.541 33.8744 226.541 34.1655H226.153C226.056 34.2626 226.056 34.3597 226.056 34.4567C226.25 34.4567 226.444 34.3597 226.638 34.3597C226.541 34.4567 226.347 34.5538 226.25 34.5538C226.832 36.1068 229.064 34.1655 230.035 34.1655C230.035 33.4861 229.744 32.4184 228.967 32.0302C228.967 32.0302 228.967 31.9331 228.87 31.9331C229.162 31.8361 229.162 31.642 229.356 31.5449V31.2537C228.967 30.8655 228.676 30.8655 228.288 30.3802C227.9 30.186 227.609 30.2831 227.317 30.4772C227.317 30.3802 227.317 30.3802 227.414 30.2831C227.22 30.186 227.123 30.186 226.929 30.089C226.832 30.2831 226.541 30.3802 226.153 30.3802C226.056 30.7684 226.153 30.7684 225.958 30.9625C226.153 31.1566 226.347 31.0596 226.638 31.0596C226.541 31.3508 226.444 31.2537 226.444 31.4478H224.988C225.279 31.8361 225.279 31.642 225.473 31.8361Z" fill="white"/>
</svg>
