<svg width="173" height="20" viewBox="0 0 173 20" fill="none" xmlns="http://www.w3.org/2000/svg">
<path d="M72.4969 2.81494H75.4539V5.42394H77.7969V7.51495H75.4489V12.5549C75.4269 12.7527 75.4482 12.9529 75.5113 13.1417C75.5743 13.3304 75.6777 13.5032 75.8142 13.648C75.9508 13.7928 76.1172 13.9062 76.3019 13.9802C76.4866 14.0543 76.6852 14.0873 76.8839 14.0769C77.1622 14.0957 77.4417 14.0663 77.7099 13.9899V15.8149C77.0476 16.0172 76.3585 16.1184 75.6659 16.1149C73.2309 16.1149 72.4919 14.5499 72.4919 12.5929V2.81494" fill="white"/>
<path d="M99.936 5.42003H96.979V15.82H99.979V9.55503C99.979 8.29403 100.631 7.46803 101.849 7.46803C102.116 7.46075 102.381 7.51157 102.625 7.61699C102.87 7.7224 103.089 7.87988 103.267 8.07847C103.445 8.27706 103.578 8.51201 103.656 8.76699C103.734 9.02197 103.755 9.29088 103.719 9.55503V15.82H106.719V8.86003C106.769 8.35999 106.708 7.85509 106.54 7.38136C106.373 6.90764 106.102 6.47676 105.749 6.11951C105.396 5.76227 104.968 5.48745 104.496 5.31468C104.024 5.14191 103.52 5.07544 103.019 5.12003C102.428 5.06786 101.834 5.18785 101.309 5.46553C100.785 5.74321 100.351 6.16673 100.062 6.68503H100.019V5.42003H99.936Z" fill="white"/>
<path d="M95.9789 5.12C93.2789 5.12 92.6309 6.642 92.4569 7.12H92.4169V5.41999H89.7169V15.82H92.7169V10.642C92.6847 10.2113 92.7481 9.77876 92.9025 9.37538C93.0569 8.972 93.2986 8.60772 93.6101 8.30858C93.9217 8.00944 94.2955 7.78283 94.7048 7.64495C95.1142 7.50707 95.5489 7.46133 95.9779 7.51099L95.9789 5.12Z" fill="white"/>
<path d="M69.062 8.33695L70.975 7.03696C70.714 6.60196 69.714 5.07996 66.714 5.07996C64.496 5.07996 62.627 6.21095 62.627 8.25395C62.627 10.124 63.975 11.037 65.497 11.515C65.932 11.645 66.41 11.776 66.797 11.906C67.623 12.167 68.232 12.384 68.232 12.993C68.232 13.558 67.623 13.95 66.532 13.95C66.0798 13.9728 65.6301 13.8713 65.2315 13.6566C64.8329 13.4419 64.5007 13.1221 64.271 12.732L62.271 13.863C62.445 14.341 63.532 16.081 66.75 16.081C69.185 16.081 71.229 15.037 71.229 12.781C71.229 10.868 69.881 9.99796 68.272 9.51996C67.8868 9.38406 67.495 9.2679 67.098 9.17196C66.359 8.95496 65.62 8.73695 65.62 8.08495C65.62 7.56295 66.098 7.25896 66.968 7.25896C67.383 7.22449 67.7993 7.30727 68.1695 7.49786C68.5397 7.68845 68.849 7.97918 69.062 8.33695Z" fill="white"/>
<path d="M49.364 0.901978L46.625 11.512L43.925 0.901978H40.185L37.402 11.816L34.623 0.901978H31.449L35.319 15.817H39.276L41.976 5.25098L44.676 15.817H48.416L52.286 0.901978H49.364Z" fill="white"/>
<path d="M61.67 10.599C61.67 7.85999 60.061 5.12 56.539 5.12C53.365 5.12 51.364 7.51199 51.364 10.599C51.364 13.686 53.321 16.078 56.664 16.078C57.5264 16.1513 58.3915 15.973 59.1546 15.5648C59.9178 15.1566 60.5463 14.536 60.964 13.778L58.964 12.604C58.761 13.0224 58.4368 13.3701 58.0336 13.602C57.6304 13.8338 57.1668 13.939 56.703 13.904C56.3914 13.8974 56.0842 13.829 55.7993 13.7026C55.5144 13.5762 55.2574 13.3945 55.0434 13.1679C54.8294 12.9413 54.6625 12.6744 54.5526 12.3827C54.4426 12.0911 54.3918 11.7805 54.403 11.469H61.752C61.67 11.512 61.67 10.642 61.67 10.599ZM54.364 9.46799C54.494 8.29399 55.103 7.24999 56.538 7.24999C56.8277 7.24843 57.1147 7.30506 57.382 7.41653C57.6494 7.52799 57.8917 7.69202 58.0944 7.89889C58.2972 8.10575 58.4563 8.35124 58.5624 8.62078C58.6685 8.89032 58.7194 9.17842 58.712 9.46799H54.364Z" fill="white"/>
<path d="M88.326 10.599C88.326 7.85999 86.717 5.12 83.195 5.12C80.021 5.12 78.02 7.51199 78.02 10.599C78.02 13.686 79.977 16.078 83.32 16.078C84.1824 16.1513 85.0475 15.973 85.8107 15.5648C86.5738 15.1566 87.2023 14.536 87.62 13.778L85.62 12.604C85.417 13.0224 85.0928 13.3701 84.6896 13.602C84.2864 13.8338 83.8228 13.939 83.359 13.904C83.0474 13.8974 82.7402 13.829 82.4553 13.7026C82.1704 13.5762 81.9134 13.3945 81.6994 13.1679C81.4854 12.9413 81.3185 12.6744 81.2086 12.3827C81.0987 12.0911 81.0478 11.7805 81.059 11.469H88.408C88.326 11.512 88.326 10.642 88.326 10.599ZM81.02 9.46799C81.15 8.29399 81.759 7.24999 83.194 7.24999C83.4837 7.24843 83.7707 7.30506 84.0381 7.41653C84.3054 7.52799 84.5477 7.69202 84.7504 7.89889C84.9532 8.10575 85.1124 8.35124 85.2184 8.62078C85.3245 8.89032 85.3754 9.17842 85.368 9.46799H81.02Z" fill="white"/>
<path d="M148.246 2.81494H151.203V5.42394H153.546V7.51495H151.198V12.5549C151.176 12.7527 151.197 12.9529 151.26 13.1417C151.323 13.3304 151.427 13.5032 151.563 13.648C151.7 13.7928 151.866 13.9062 152.051 13.9802C152.236 14.0543 152.434 14.0873 152.633 14.0769C152.911 14.0957 153.191 14.0663 153.459 13.9899V15.8149C152.797 16.0172 152.108 16.1184 151.415 16.1149C148.98 16.1149 148.241 14.5499 148.241 12.5929V2.81494" fill="white"/>
<path d="M117.503 0.901978H112.415V15.817H117.503C122.243 15.817 125.069 13.556 125.069 8.33798C125.025 3.16298 122.115 0.901978 117.503 0.901978ZM117.286 13.338H115.586V3.38098H117.286C121.156 3.38098 121.721 5.98998 121.721 8.38098C121.764 10.729 121.199 13.338 117.285 13.338H117.286Z" fill="white"/>
<path d="M168.639 0.901978H165.552V15.817H168.639V0.901978Z" fill="white"/>
<path d="M171.553 13.556C171.304 13.556 171.06 13.63 170.852 13.7685C170.645 13.9071 170.483 14.104 170.388 14.3345C170.293 14.5649 170.268 14.8184 170.316 15.063C170.365 15.3076 170.485 15.5323 170.661 15.7087C170.838 15.885 171.062 16.0051 171.307 16.0538C171.552 16.1025 171.805 16.0775 172.036 15.982C172.266 15.8866 172.463 15.725 172.601 15.5176C172.74 15.3102 172.814 15.0664 172.814 14.817C172.814 14.4827 172.681 14.1621 172.444 13.9257C172.208 13.6892 171.887 13.5563 171.553 13.556ZM171.553 15.904C171.346 15.905 171.144 15.8447 170.972 15.7308C170.8 15.6169 170.665 15.4544 170.585 15.2639C170.505 15.0735 170.484 14.8636 170.523 14.6609C170.563 14.4582 170.661 14.2717 170.807 14.125C170.952 13.9783 171.138 13.8781 171.34 13.837C171.542 13.7958 171.752 13.8156 171.944 13.8939C172.135 13.9721 172.298 14.1053 172.414 14.2766C172.529 14.4479 172.591 14.6495 172.592 14.856C172.589 15.1316 172.479 15.3954 172.285 15.5911C172.091 15.7868 171.829 15.8991 171.553 15.904Z" fill="white"/>
<path d="M172.031 15.121C172.035 15.0536 172.016 14.9867 171.977 14.9319C171.937 14.8771 171.879 14.8379 171.814 14.821C171.891 14.8029 171.96 14.758 172.008 14.6944C172.055 14.6308 172.079 14.5524 172.075 14.473C172.075 14.173 171.858 14.082 171.553 14.082H171.074V15.56H171.335V14.947H171.509C171.683 14.947 171.77 15.034 171.809 15.295C171.816 15.3831 171.831 15.4705 171.853 15.556H172.114C172.074 15.555 172.031 15.295 172.031 15.121ZM171.553 14.73H171.336V14.295H171.553C171.616 14.2905 171.678 14.3106 171.727 14.351C171.776 14.3915 171.807 14.4492 171.814 14.512C171.813 14.642 171.726 14.729 171.552 14.729L171.553 14.73Z" fill="white"/>
<path d="M138.288 5.42V6.551H138.245C137.95 6.07622 137.531 5.69137 137.033 5.43836C136.534 5.18534 135.976 5.07385 135.419 5.11601C132.245 5.11601 131.071 7.725 131.071 10.377C131.071 13.029 132.245 15.595 135.419 15.595C135.978 15.652 136.542 15.547 137.043 15.2926C137.544 15.0382 137.961 14.645 138.245 14.16H138.288V15.378C138.306 15.6778 138.262 15.9781 138.158 16.2599C138.054 16.5416 137.892 16.7988 137.684 17.0149C137.475 17.2311 137.224 17.4017 136.946 17.5158C136.669 17.63 136.37 17.6852 136.07 17.678C135.615 17.6858 135.167 17.5732 134.77 17.3518C134.373 17.1303 134.041 16.8078 133.809 16.417C133.548 16.547 131.809 17.591 131.809 17.591C132.026 18.026 132.896 19.891 136.157 19.891C139.592 19.891 141.245 17.717 141.245 14.629V5.42H138.288ZM136.288 13.377C134.588 13.377 134.288 11.725 134.288 10.377C134.288 8.855 134.723 7.377 136.288 7.377C137.853 7.377 138.288 8.855 138.288 10.377C138.288 11.686 137.94 13.382 136.288 13.382V13.377Z" fill="white"/>
<path d="M158.551 5.12003C157.773 5.06831 156.993 5.20763 156.281 5.52588C155.569 5.84413 154.945 6.33166 154.464 6.94603L156.203 8.24603C156.446 7.91168 156.768 7.64181 157.139 7.45987C157.51 7.27793 157.921 7.18942 158.334 7.20203C159.682 7.20203 160.508 7.85403 160.508 8.98503V9.20203H159.208C156.164 9.20203 154.208 10.333 154.208 12.681C154.251 13.4015 154.511 14.0921 154.955 14.6612C155.399 15.2303 156.005 15.6512 156.694 15.8681C157.382 16.0849 158.12 16.0875 158.81 15.8756C159.5 15.6636 160.109 15.247 160.557 14.681H160.6V15.73H163.513V9.25103C163.508 6.25103 161.117 5.12003 158.551 5.12003ZM160.508 11.686C160.508 12.904 159.986 13.986 158.682 13.986C158.488 14.0054 158.293 13.9838 158.108 13.9226C157.924 13.8613 157.754 13.7618 157.61 13.6305C157.467 13.4993 157.352 13.3392 157.275 13.1608C157.197 12.9824 157.158 12.7896 157.16 12.595C157.16 11.725 157.769 11.073 159.334 11.073H160.508V11.686Z" fill="white"/>
<path d="M129.678 5.42395H126.591V15.8169H129.678V5.42395Z" fill="white"/>
<path d="M128.156 3.94499C129.068 3.94499 129.808 3.20537 129.808 2.29299C129.808 1.38062 129.068 0.640991 128.156 0.640991C127.244 0.640991 126.504 1.38062 126.504 2.29299C126.504 3.20537 127.244 3.94499 128.156 3.94499Z" fill="white"/>
<path d="M146.332 5.42395H143.245V15.8169H146.332V5.42395Z" fill="white"/>
<path d="M144.81 3.94499C145.722 3.94499 146.462 3.20537 146.462 2.29299C146.462 1.38062 145.722 0.640991 144.81 0.640991C143.898 0.640991 143.158 1.38062 143.158 2.29299C143.158 3.20537 143.898 3.94499 144.81 3.94499Z" fill="white"/>
<path d="M19.795 0.901996H23.274C23.6762 0.906924 24.0604 1.06886 24.3448 1.35323C24.6292 1.6376 24.7911 2.02187 24.796 2.424V5.902C24.7957 6.19907 24.7079 6.48947 24.5437 6.73704C24.3795 6.9846 24.1461 7.17839 23.8726 7.29427C23.599 7.41014 23.2975 7.44299 23.0054 7.38871C22.7133 7.33442 22.4437 7.19541 22.23 6.98899L18.751 3.50999C18.5307 3.302 18.3781 3.03255 18.3129 2.73665C18.2478 2.44075 18.2731 2.13209 18.3857 1.85081C18.4983 1.56952 18.693 1.32861 18.9443 1.1594C19.1956 0.990189 19.492 0.900503 19.795 0.901996Z" fill="#5DA7FB"/>
<path d="M12.142 9.29398H9.66398C9.31508 9.29624 8.96921 9.22918 8.64644 9.09671C8.32366 8.96423 8.03041 8.76897 7.7837 8.52226C7.53698 8.27555 7.34172 7.98229 7.20925 7.65952C7.07677 7.33674 7.00972 6.99087 7.01198 6.64198V2.42398C7.00704 2.02168 6.84497 1.63726 6.56039 1.35286C6.2758 1.06847 5.89128 0.906647 5.48898 0.901978H2.01098C1.71391 0.902331 1.4235 0.990072 1.17594 1.15427C0.928371 1.31848 0.734582 1.55188 0.618706 1.82542C0.50283 2.09896 0.469987 2.40055 0.524269 2.69262C0.578551 2.98469 0.717557 3.25433 0.923977 3.46798L2.27498 4.81598L4.10098 6.64198L4.14398 6.68498L4.44398 6.98498L9.35798 11.855L9.79298 12.29L9.92297 12.42L11.749 14.246L12.836 15.377C13.047 15.5903 13.3172 15.7354 13.6116 15.7936C13.906 15.8517 14.2111 15.8203 14.4874 15.7032C14.7637 15.5862 14.9986 15.3889 15.1616 15.137C15.3247 14.885 15.4084 14.59 15.402 14.29V10.816C15.397 10.4138 15.2351 10.0296 14.9507 9.74521C14.6664 9.46084 14.2821 9.29891 13.88 9.29398H12.142Z" fill="#FC1859"/>
<path d="M21.5339 9.29398H19.0559C18.7071 9.29624 18.3612 9.22918 18.0384 9.09671C17.7156 8.96423 17.4224 8.76897 17.1757 8.52226C16.929 8.27555 16.7337 7.98229 16.6012 7.65952C16.4687 7.33674 16.4017 6.99087 16.4039 6.64198V2.42398C16.399 2.02168 16.2369 1.63726 15.9524 1.35286C15.6678 1.06847 15.2832 0.906647 14.8809 0.901978H11.4029C11.1059 0.902331 10.8155 0.990072 10.5679 1.15427C10.3203 1.31848 10.1265 1.55188 10.0107 1.82542C9.8948 2.09896 9.86196 2.40055 9.91624 2.69262C9.97052 2.98469 10.1095 3.25433 10.3159 3.46798L11.6669 4.81598L13.4929 6.64198L13.5359 6.68498L13.8359 6.98498L18.7509 11.902L19.1859 12.337L19.3159 12.467L21.1419 14.293L22.2729 15.424C22.484 15.6373 22.7542 15.7824 23.0486 15.8406C23.343 15.8987 23.6481 15.8673 23.9244 15.7502C24.2007 15.6332 24.4356 15.4359 24.5986 15.184C24.7616 14.932 24.8454 14.637 24.8389 14.337V10.86C24.834 10.4578 24.6721 10.0736 24.3877 9.78921C24.1033 9.50484 23.7191 9.34291 23.3169 9.33798H21.5339V9.29398Z" fill="#995DFF"/>
<path d="M27.4049 14.469H26.9269V15.817H26.7529V14.469H26.2739V14.295H27.4479V14.469H27.4049Z" fill="#995DFF"/>
<path d="M27.6649 14.338H27.9259L28.4479 15.512L28.9649 14.338H29.2259V15.816H29.0519V14.555L28.4869 15.816H28.3999L27.8779 14.555V15.816H27.7039V14.338H27.6649Z" fill="#995DFF"/>
</svg>
