<svg width="425" height="149" viewBox="0 0 425 149" fill="none" xmlns="http://www.w3.org/2000/svg">
<path d="M184.317 52.1628L157.678 148.772H120.238L146.878 52.1628H184.317ZM129.701 52.1628H92.2616L87.1188 70.5793H65.3134L70.3533 52.1628H34.3538L29.211 70.5793H15.8398L12.857 102.165H20.5712L7.71418 148.772H43.7137L56.5707 102.165H98.1244L121.576 81.4851L129.701 52.1628ZM197.483 4.42401H160.044L151.301 35.9069H188.74L197.483 4.42401ZM134.124 35.9069L137.415 23.8693L126.101 4.42401H0L32.1938 36.0098H134.124V35.9069ZM403.195 4.42401H324.613L315.87 36.0098H373.778L370.795 46.607H408.234C408.234 46.4012 414.509 24.0751 414.509 23.8693L403.195 4.42401ZM223.506 52.1628H201.7L174.958 148.772H212.5L234.1 70.3735L223.506 52.1628ZM351.664 90.2304H358.761L349.298 124.594H327.493L347.447 52.1628H311.447L284.808 148.772H364.932L384.578 132.722L401.652 70.6822H357.115L351.664 90.2304ZM269.996 4.42401L264.339 25.0011L252.305 4.42401H214.866L206.123 36.0098H234.203L252.614 67.4927L230.088 148.875H267.631L307.436 4.52689H269.996V4.42401Z" fill="#8E0CD0"/>
<path d="M195.015 47.8417L168.375 144.451H130.936L157.575 47.8417H195.015ZM140.295 47.8417H102.856L97.7132 66.2581H75.9077L80.9477 47.8417H44.9482L39.8054 66.2581H26.4341L23.4513 97.8439H31.1655L18.3085 144.451H54.308L67.165 97.8439H108.719L132.17 77.164L140.295 47.8417ZM208.18 0H170.741L161.998 31.4829H199.438L208.18 0ZM144.718 31.5858L148.01 19.5482L136.696 0.102884H10.6972L42.8911 31.6887H144.718V31.5858ZM413.789 0H335.207L326.464 31.5858H384.269L381.286 42.183H418.726C418.726 41.9772 425 19.6511 425 19.4453L413.789 0ZM234.203 47.8417H212.294L185.552 144.451H223.094L244.694 66.0524L234.203 47.8417ZM362.258 85.8064H369.355L359.892 120.17H338.087L358.041 47.7388H322.042L295.402 144.348H375.527L395.172 128.298L412.246 66.2581H367.71L362.258 85.8064ZM280.694 0L275.036 20.5771L263.002 0H225.563L216.82 31.5858H244.9L263.311 63.0687L240.786 144.451H278.328L318.133 0.102884H280.694V0Z" fill="#90FFFF"/>
<path d="M190.078 52.1628L163.438 148.772H125.998L152.638 52.1628H190.078ZM135.358 52.1628H97.9188L92.776 70.5793H70.9706L76.0106 52.1628H40.011L34.8683 70.5793H21.497L18.5142 102.165H26.2284L13.3714 148.772H49.3709L62.2279 102.165H103.782L127.233 81.4851L135.358 52.1628ZM203.243 4.42401H165.804L157.061 35.9069H194.5L203.243 4.42401ZM139.884 35.9069L143.175 23.8693L131.861 4.42401H5.76007L37.9539 36.0098H139.884V35.9069ZM408.955 4.42401H330.373L321.63 36.0098H379.435L376.452 46.607H413.892C413.892 46.4012 420.166 24.0751 420.166 23.8693L408.955 4.42401ZM229.266 52.1628H207.46L180.718 148.772H218.26L239.86 70.3735L229.266 52.1628ZM357.424 90.2304H364.521L355.058 124.594H333.253L353.207 52.1628H317.207L290.568 148.772H370.692L390.338 132.722L407.412 70.6822H362.875L357.424 90.2304ZM275.756 4.42401L270.099 25.0011L258.065 4.42401H220.626L211.883 36.0098H239.963L258.374 67.4927L235.848 148.875H273.391L313.196 4.52689H275.756V4.42401Z" fill="white"/>
</svg>
