<svg width="42" height="42" viewBox="0 0 42 42" fill="none" xmlns="http://www.w3.org/2000/svg">
<rect width="41.75" height="41.75" rx="5" fill="#4F4F4F"/>
<mask id="mask0_1419_1736" style="mask-type:alpha" maskUnits="userSpaceOnUse" x="7" y="7" width="28" height="28">
<rect x="7" y="7" width="28" height="28" fill="#D9D9D9"/>
</mask>
<g mask="url(#mask0_1419_1736)">
<path d="M20.9999 32.6668C19.4055 32.6668 17.8985 32.3604 16.4791 31.7475C15.0596 31.1354 13.8203 30.2993 12.7609 29.2392C11.7008 28.1798 10.8647 26.9404 10.2526 25.521C9.6397 24.1016 9.33325 22.5946 9.33325 21.0002C9.33325 19.3863 9.6397 17.8747 10.2526 16.4653C10.8647 15.0552 11.7008 13.8205 12.7609 12.7612C13.8203 11.7011 15.0596 10.8646 16.4791 10.2517C17.8985 9.63955 19.4055 9.3335 20.9999 9.3335C22.6138 9.3335 24.1254 9.63955 25.5348 10.2517C26.9449 10.8646 28.1796 11.7011 29.2389 12.7612C30.299 13.8205 31.1351 15.0552 31.7473 16.4653C32.3601 17.8747 32.6666 19.3863 32.6666 21.0002V22.6918C32.6666 23.8391 32.273 24.8159 31.4859 25.6225C30.698 26.4298 29.7305 26.8335 28.5833 26.8335C27.8833 26.8335 27.2319 26.6779 26.6291 26.3668C26.0263 26.0557 25.5305 25.6474 25.1416 25.1418C24.6166 25.6668 23.9994 26.0802 23.2901 26.382C22.58 26.683 21.8166 26.8335 20.9999 26.8335C19.386 26.8335 18.0105 26.2646 16.8734 25.1267C15.7355 23.9896 15.1666 22.6141 15.1666 21.0002C15.1666 19.3863 15.7355 18.0104 16.8734 16.8725C18.0105 15.7354 19.386 15.1668 20.9999 15.1668C22.6138 15.1668 23.9897 15.7354 25.1276 16.8725C26.2647 18.0104 26.8333 19.3863 26.8333 21.0002V22.6918C26.8333 23.2557 27.0083 23.6979 27.3583 24.0183C27.7083 24.3396 28.1166 24.5002 28.5833 24.5002C29.0499 24.5002 29.4583 24.3396 29.8083 24.0183C30.1583 23.6979 30.3333 23.2557 30.3333 22.6918V21.0002C30.3333 18.4529 29.4143 16.2604 27.5764 14.4225C25.7393 12.5854 23.5471 11.6668 20.9999 11.6668C18.4527 11.6668 16.2601 12.5854 14.4223 14.4225C12.5851 16.2604 11.6666 18.4529 11.6666 21.0002C11.6666 23.5474 12.5851 25.7396 14.4223 27.5767C16.2601 29.4146 18.4527 30.3335 20.9999 30.3335H26.8333V32.6668H20.9999ZM20.9999 24.5002C21.9721 24.5002 22.7985 24.1599 23.4791 23.4793C24.1596 22.7988 24.4999 21.9724 24.4999 21.0002C24.4999 20.0279 24.1596 19.2016 23.4791 18.521C22.7985 17.8404 21.9721 17.5002 20.9999 17.5002C20.0277 17.5002 19.2013 17.8404 18.5208 18.521C17.8402 19.2016 17.4999 20.0279 17.4999 21.0002C17.4999 21.9724 17.8402 22.7988 18.5208 23.4793C19.2013 24.1599 20.0277 24.5002 20.9999 24.5002Z" fill="#1C1B1F"/>
</g>
</svg>
