<svg width="24" height="24" viewBox="0 0 24 24" fill="none" xmlns="http://www.w3.org/2000/svg">
<rect x="0.25" y="0.25" width="23.5" height="23.5" rx="2.75" fill="#1B1B1B"/>
<path d="M12.6231 17V15.8531H11.3617V17H12.6231ZM16.9544 8.70629C16.9088 7.82518 16.1337 7.12587 15.1915 7.08392C13.6565 7.02797 13.5198 7 12 7C10.465 7 10.3283 7.02797 8.79331 7.08392C7.85106 7.12587 7.07599 7.82518 7.0304 8.70629C7.0152 9.01399 7 9.30769 7 9.61538H8.2462C8.2614 9.33566 8.2614 9.05594 8.2766 8.76224C8.29179 8.62238 8.35258 8.4965 8.45897 8.3986C8.56535 8.3007 8.70213 8.24476 8.8541 8.24476C10.3587 8.17483 10.4954 8.14685 12 8.14685C13.5046 8.14685 13.6261 8.17483 15.1307 8.24476C15.2827 8.24476 15.4195 8.3007 15.5258 8.3986C15.6322 8.4965 15.693 8.62238 15.7082 8.76224C15.7234 9.05594 15.7386 9.33566 15.7386 9.61538V11.014C15.7386 11.1538 15.6778 11.2797 15.5714 11.3776C15.465 11.4755 15.3283 11.5315 15.1763 11.5455H13.1398C12.1824 11.5874 11.4225 12.2867 11.3617 13.1678V15.2797H12.6231V13.2238C12.6231 13.0839 12.6839 12.958 12.7903 12.8601C12.8967 12.7622 13.0334 12.7063 13.1854 12.6923H15.2219C16.1793 12.6503 16.9392 11.951 17 11.0699V9.61538C16.9848 9.30769 16.9696 9.01399 16.9544 8.70629Z" fill="#90FFFF"/>
<rect x="0.25" y="0.25" width="23.5" height="23.5" rx="2.75" stroke="white" stroke-width="0.5"/>
</svg>
