<svg width="71" height="71" viewBox="0 0 71 71" fill="none" xmlns="http://www.w3.org/2000/svg">
<rect x="35.3553" y="0.707107" width="49" height="49" transform="rotate(45 35.3553 0.707107)" fill="#1B1B1B"/>
<path d="M36.39 46V43.54H33.9V46H36.39ZM44.94 28.21C44.85 26.32 43.32 24.82 41.46 24.73C38.43 24.61 38.16 24.55 35.16 24.55C32.13 24.55 31.86 24.61 28.83 24.73C26.97 24.82 25.44 26.32 25.35 28.21C25.32 28.87 25.29 29.5 25.29 30.16H27.75C27.78 29.56 27.78 28.96 27.81 28.33C27.84 28.03 27.96 27.76 28.17 27.55C28.38 27.34 28.65 27.22 28.95 27.22C31.92 27.07 32.19 27.01 35.16 27.01C38.13 27.01 38.37 27.07 41.34 27.22C41.64 27.22 41.91 27.34 42.12 27.55C42.33 27.76 42.45 28.03 42.48 28.33C42.51 28.96 42.54 29.56 42.54 30.16V33.16C42.54 33.46 42.42 33.73 42.21 33.94C42 34.15 41.73 34.27 41.43 34.3H37.41C35.52 34.39 34.02 35.89 33.9 37.78V42.31H36.39V37.9C36.39 37.6 36.51 37.33 36.72 37.12C36.93 36.91 37.2 36.79 37.5 36.76H41.52C43.41 36.67 44.91 35.17 45.03 33.28V30.16C45 29.5 44.97 28.87 44.94 28.21Z" fill="#90FFFF"/>
<rect x="35.3553" y="0.707107" width="49" height="49" transform="rotate(45 35.3553 0.707107)" stroke="white"/>
</svg>
